<svg xmlns="http://www.w3.org/2000/svg" viewBox="0 0 512 512">
    <path fill="#4267b2" d="M483.738281 0h-455.5C12.640625.007813-.003906 12.660156 0 28.261719v455.5C.007812 499.359375 12.660156 512.003906 28.261719 512h455.476562c15.605469.003906 28.257813-12.644531 28.261719-28.25V28.238281C511.992188 12.640625 499.339844-.003906 483.738281 0zm0 0"/>
    <path fill="#fff" d="M353.5 512V314h66.75l10-77.5H353.5v-49.359375c0-22.386719 6.214844-37.640625 38.316406-37.640625H432.5V80.371094c-7.078125-.941406-31.363281-3.046875-59.621094-3.046875-59 0-99.378906 36-99.378906 102.140625V236.5H207V314h66.5v198zm0 0"/>
</svg>
