<svg width="175" height="172" viewBox="0 0 175 172" fill="none" xmlns="http://www.w3.org/2000/svg">
<g opacity="0.2">
<path opacity="0.2" d="M169.984 48.9456C171.189 48.9456 172.154 47.9811 172.154 46.7756C172.154 45.57 171.189 44.6056 169.984 44.6056C168.778 44.6056 167.814 45.57 167.814 46.7756C167.814 47.9811 168.778 48.9456 169.984 48.9456Z" fill="black"/>
<path opacity="0.2" d="M158.892 60.2778C160.091 60.2778 161.062 59.3062 161.062 58.1078C161.062 56.9093 160.091 55.9378 158.892 55.9378C157.694 55.9378 156.722 56.9093 156.722 58.1078C156.722 59.3062 157.694 60.2778 158.892 60.2778Z" fill="black"/>
<path opacity="0.2" d="M169.984 60.2778C171.189 60.2778 172.154 59.3133 172.154 58.1078C172.154 56.9022 171.189 55.9378 169.984 55.9378C168.778 55.9378 167.814 56.9022 167.814 58.1078C167.814 59.3133 168.778 60.2778 169.984 60.2778Z" fill="black"/>
<path opacity="0.2" d="M147.56 71.3689C148.765 71.3689 149.73 70.4044 149.73 69.1989C149.73 67.9933 148.765 67.0289 147.56 67.0289C146.354 67.0289 145.39 67.9933 145.39 69.1989C145.631 70.4044 146.354 71.3689 147.56 71.3689Z" fill="black"/>
<path opacity="0.2" d="M158.892 71.3689C160.098 71.3689 161.062 70.4044 161.062 69.1989C161.062 67.9933 160.098 67.0289 158.892 67.0289C157.687 67.0289 156.722 67.9933 156.722 69.1989C156.722 70.4044 157.687 71.3689 158.892 71.3689Z" fill="black"/>
<path opacity="0.2" d="M169.984 71.3689C171.189 71.3689 172.154 70.4044 172.154 69.1989C172.154 67.9933 171.189 67.0289 169.984 67.0289C168.778 67.0289 167.814 67.9933 167.814 69.1989C167.814 70.4044 168.778 71.3689 169.984 71.3689Z" fill="black"/>
<path opacity="0.2" d="M136.469 60.46C137.675 60.46 138.639 59.4955 138.639 58.29C138.639 57.0844 137.675 56.12 136.469 56.12C135.264 56.12 134.299 57.0844 134.299 58.29C134.299 59.7367 135.264 60.46 136.469 60.46Z" fill="black"/>
<path opacity="0.2" d="M147.56 82.46C148.765 82.46 149.73 81.4955 149.73 80.29C149.73 79.0844 148.765 78.12 147.56 78.12C146.354 78.12 145.39 79.0844 145.39 80.29C145.631 81.7367 146.354 82.46 147.56 82.46Z" fill="black"/>
<path opacity="0.2" d="M158.892 82.46C160.098 82.46 161.062 81.4955 161.062 80.29C161.062 79.0844 160.098 78.12 158.892 78.12C157.687 78.12 156.722 79.0844 156.722 80.29C156.722 81.7367 157.687 82.46 158.892 82.46Z" fill="black"/>
<path opacity="0.2" d="M169.984 82.46C171.189 82.46 172.154 81.4955 172.154 80.29C172.154 79.0844 171.189 78.12 169.984 78.12C168.778 78.12 167.814 79.0844 167.814 80.29C167.814 81.7367 168.778 82.46 169.984 82.46Z" fill="black"/>
<path opacity="0.2" d="M125.137 71.7922C126.342 71.7922 127.307 70.8278 127.307 69.6222C127.307 68.4167 126.342 67.4522 125.137 67.4522C123.931 67.4522 122.967 68.4167 122.967 69.6222C123.208 70.8278 124.172 71.7922 125.137 71.7922Z" fill="black"/>
<path opacity="0.2" d="M136.469 71.7922C137.668 71.7922 138.639 70.8207 138.639 69.6222C138.639 68.4238 137.668 67.4522 136.469 67.4522C135.271 67.4522 134.299 68.4238 134.299 69.6222C134.299 70.8207 135.271 71.7922 136.469 71.7922Z" fill="black"/>
<path opacity="0.2" d="M147.56 93.7922C148.765 93.7922 149.73 92.8278 149.73 91.6222C149.73 90.4167 148.765 89.4522 147.56 89.4522C146.354 89.4522 145.39 90.4167 145.39 91.6222C145.631 92.8278 146.354 93.7922 147.56 93.7922Z" fill="black"/>
<path opacity="0.2" d="M158.892 93.7922C160.091 93.7922 161.062 92.8207 161.062 91.6222C161.062 90.4238 160.091 89.4522 158.892 89.4522C157.694 89.4522 156.722 90.4238 156.722 91.6222C156.722 92.8207 157.694 93.7922 158.892 93.7922Z" fill="black"/>
<path opacity="0.2" d="M169.984 93.7922C171.189 93.7922 172.154 92.8278 172.154 91.6222C172.154 90.4167 171.189 89.4522 169.984 89.4522C168.778 89.4522 167.814 90.4167 167.814 91.6222C167.814 92.8278 168.778 93.7922 169.984 93.7922Z" fill="black"/>
<path opacity="0.2" d="M114.045 82.8833C115.251 82.8833 116.215 81.9189 116.215 80.7133C116.215 79.5078 115.251 78.5433 114.045 78.5433C112.84 78.5433 111.875 79.5078 111.875 80.7133C111.875 81.9189 112.84 82.8833 114.045 82.8833Z" fill="black"/>
<path opacity="0.2" d="M125.137 82.8833C126.342 82.8833 127.307 81.9189 127.307 80.7133C127.307 79.5078 126.342 78.5433 125.137 78.5433C123.931 78.5433 122.967 79.5078 122.967 80.7133C123.208 81.9189 124.172 82.8833 125.137 82.8833Z" fill="black"/>
<path opacity="0.2" d="M136.469 82.8833C137.675 82.8833 138.639 81.9189 138.639 80.7133C138.639 79.5078 137.675 78.5433 136.469 78.5433C135.264 78.5433 134.299 79.5078 134.299 80.7133C134.299 81.9189 135.264 82.8833 136.469 82.8833Z" fill="black"/>
<path opacity="0.2" d="M147.56 104.883C148.765 104.883 149.73 103.919 149.73 102.713C149.73 101.508 148.765 100.543 147.56 100.543C146.354 100.543 145.39 101.508 145.39 102.713C145.631 103.919 146.354 104.883 147.56 104.883Z" fill="black"/>
<path opacity="0.2" d="M158.892 104.883C160.098 104.883 161.062 103.919 161.062 102.713C161.062 101.508 160.098 100.543 158.892 100.543C157.687 100.543 156.722 101.508 156.722 102.713C156.722 103.919 157.687 104.883 158.892 104.883Z" fill="black"/>
<path opacity="0.2" d="M169.984 104.883C171.189 104.883 172.154 103.919 172.154 102.713C172.154 101.508 171.189 100.543 169.984 100.543C168.778 100.543 167.814 101.508 167.814 102.713C167.814 103.919 168.778 104.883 169.984 104.883Z" fill="black"/>
<path opacity="0.2" d="M102.954 53.2155C104.153 53.2155 105.124 52.2439 105.124 51.0455C105.124 49.847 104.153 48.8755 102.954 48.8755C101.756 48.8755 100.784 49.847 100.784 51.0455C100.784 52.2439 101.756 53.2155 102.954 53.2155Z" fill="black"/>
<path opacity="0.2" d="M114.045 94.2155C115.251 94.2155 116.215 93.2511 116.215 92.0455C116.215 90.84 115.251 89.8755 114.045 89.8755C112.84 89.8755 111.875 90.84 111.875 92.0455C111.875 93.2511 112.84 94.2155 114.045 94.2155Z" fill="black"/>
<path opacity="0.2" d="M125.137 94.2155C126.342 94.2155 127.307 93.2511 127.307 92.0455C127.307 90.84 126.342 89.8755 125.137 89.8755C123.931 89.8755 122.967 90.84 122.967 92.0455C123.208 93.2511 124.172 94.2155 125.137 94.2155Z" fill="black"/>
<path opacity="0.2" d="M136.469 94.2155C137.668 94.2155 138.639 93.244 138.639 92.0455C138.639 90.8471 137.668 89.8755 136.469 89.8755C135.271 89.8755 134.299 90.8471 134.299 92.0455C134.299 93.244 135.271 94.2155 136.469 94.2155Z" fill="black"/>
<path opacity="0.2" d="M147.56 116.216C148.765 116.216 149.73 115.251 149.73 114.046C149.73 112.84 148.765 111.876 147.56 111.876C146.354 111.876 145.39 112.84 145.39 114.046C145.631 115.251 146.354 116.216 147.56 116.216Z" fill="black"/>
<path opacity="0.2" d="M158.892 116.216C160.091 116.216 161.062 115.244 161.062 114.046C161.062 112.847 160.091 111.876 158.892 111.876C157.694 111.876 156.722 112.847 156.722 114.046C156.722 115.244 157.694 116.216 158.892 116.216Z" fill="black"/>
<path opacity="0.2" d="M169.984 116.216C171.189 116.216 172.154 115.251 172.154 114.046C172.154 112.84 171.189 111.876 169.984 111.876C168.778 111.876 167.814 112.84 167.814 114.046C167.814 115.251 168.778 116.216 169.984 116.216Z" fill="black"/>
<path opacity="0.2" d="M91.6226 64.3065C92.8282 64.3065 93.7926 63.3421 93.7926 62.1366C93.7926 60.931 92.8282 59.9666 91.6226 59.9666C90.4171 59.9666 89.4526 60.931 89.4526 62.1366C89.4526 63.3421 90.4171 64.3065 91.6226 64.3065Z" fill="black"/>
<path opacity="0.2" d="M102.954 64.3065C104.153 64.3065 105.124 63.335 105.124 62.1366C105.124 60.9381 104.153 59.9666 102.954 59.9666C101.756 59.9666 100.784 60.9381 100.784 62.1366C100.784 63.335 101.756 64.3065 102.954 64.3065Z" fill="black"/>
<path opacity="0.2" d="M114.045 105.307C115.251 105.307 116.215 104.342 116.215 103.137C116.215 101.931 115.251 100.967 114.045 100.967C112.84 100.967 111.875 101.931 111.875 103.137C111.875 104.342 112.84 105.307 114.045 105.307Z" fill="black"/>
<path opacity="0.2" d="M125.137 105.307C126.342 105.307 127.307 104.342 127.307 103.137C127.307 101.931 126.342 100.967 125.137 100.967C123.931 100.967 122.967 101.931 122.967 103.137C123.208 104.342 124.172 105.307 125.137 105.307Z" fill="black"/>
<path opacity="0.2" d="M136.469 105.307C137.668 105.307 138.639 104.335 138.639 103.137C138.639 101.938 137.668 100.967 136.469 100.967C135.271 100.967 134.299 101.938 134.299 103.137C134.299 104.335 135.271 105.307 136.469 105.307Z" fill="black"/>
<path opacity="0.2" d="M147.56 127.307C148.765 127.307 149.73 126.342 149.73 125.137C149.73 123.931 148.765 122.967 147.56 122.967C146.354 122.967 145.39 123.931 145.39 125.137C145.631 126.342 146.354 127.307 147.56 127.307Z" fill="black"/>
<path opacity="0.2" d="M158.892 127.307C160.091 127.307 161.062 126.335 161.062 125.137C161.062 123.938 160.091 122.967 158.892 122.967C157.694 122.967 156.722 123.938 156.722 125.137C156.722 126.335 157.694 127.307 158.892 127.307Z" fill="black"/>
<path opacity="0.2" d="M169.984 127.307C171.189 127.307 172.154 126.342 172.154 125.137C172.154 123.931 171.189 122.967 169.984 122.967C168.778 122.967 167.814 123.931 167.814 125.137C167.814 126.342 168.778 127.307 169.984 127.307Z" fill="black"/>
<path opacity="0.2" d="M80.5313 75.6388C81.7369 75.6388 82.7013 74.6744 82.7013 73.4688C82.7013 72.2633 81.7369 71.2988 80.5313 71.2988C79.3258 71.2988 78.3613 72.2633 78.3613 73.4688C78.3613 74.6744 79.3258 75.6388 80.5313 75.6388Z" fill="black"/>
<path opacity="0.2" d="M91.6226 75.6388C92.8282 75.6388 93.7926 74.6744 93.7926 73.4688C93.7926 72.2633 92.8282 71.2988 91.6226 71.2988C90.4171 71.2988 89.4526 72.2633 89.4526 73.4688C89.4526 74.6744 90.4171 75.6388 91.6226 75.6388Z" fill="black"/>
<path opacity="0.2" d="M102.954 75.6388C104.16 75.6388 105.124 74.6744 105.124 73.4688C105.124 72.2633 104.16 71.2988 102.954 71.2988C101.749 71.2988 100.784 72.2633 100.784 73.4688C100.784 74.6744 101.749 75.6388 102.954 75.6388Z" fill="black"/>
<path opacity="0.2" d="M114.045 138.639C115.251 138.639 116.215 137.674 116.215 136.469C116.215 135.263 115.251 134.299 114.045 134.299C112.84 134.299 111.875 135.263 111.875 136.469C111.875 137.674 112.84 138.639 114.045 138.639Z" fill="black"/>
<path opacity="0.2" d="M125.137 138.639C126.342 138.639 127.307 137.674 127.307 136.469C127.307 135.263 126.342 134.299 125.137 134.299C123.931 134.299 122.967 135.263 122.967 136.469C123.208 137.674 124.172 138.639 125.137 138.639Z" fill="black"/>
<path opacity="0.2" d="M136.469 138.639C137.675 138.639 138.639 137.674 138.639 136.469C138.639 135.263 137.675 134.299 136.469 134.299C135.264 134.299 134.299 135.263 134.299 136.469C134.299 137.674 135.264 138.639 136.469 138.639Z" fill="black"/>
<path opacity="0.2" d="M147.56 138.639C148.765 138.639 149.73 137.674 149.73 136.469C149.73 135.263 148.765 134.299 147.56 134.299C146.354 134.299 145.39 135.263 145.39 136.469C145.631 137.674 146.354 138.639 147.56 138.639Z" fill="black"/>
<path opacity="0.2" d="M158.892 138.639C160.098 138.639 161.062 137.674 161.062 136.469C161.062 135.263 160.098 134.299 158.892 134.299C157.687 134.299 156.722 135.263 156.722 136.469C156.722 137.674 157.687 138.639 158.892 138.639Z" fill="black"/>
<path opacity="0.2" d="M169.984 138.639C171.189 138.639 172.154 137.674 172.154 136.469C172.154 135.263 171.189 134.299 169.984 134.299C168.778 134.299 167.814 135.263 167.814 136.469C167.814 137.674 168.778 138.639 169.984 138.639Z" fill="black"/>
<path opacity="0.2" d="M69.1983 86.7301C70.4039 86.7301 71.3683 85.7657 71.3683 84.5601C71.3683 83.3546 70.4039 82.3901 69.1983 82.3901C67.9928 82.3901 67.0283 83.3546 67.0283 84.5601C67.2694 85.7657 67.9928 86.7301 69.1983 86.7301Z" fill="black"/>
<path opacity="0.2" d="M80.5313 86.7301C81.7298 86.7301 82.7013 85.7586 82.7013 84.5601C82.7013 83.3617 81.7298 82.3901 80.5313 82.3901C79.3329 82.3901 78.3613 83.3617 78.3613 84.5601C78.3613 85.7586 79.3329 86.7301 80.5313 86.7301Z" fill="black"/>
<path opacity="0.2" d="M91.6226 86.7301C92.8282 86.7301 93.7926 85.7657 93.7926 84.5601C93.7926 83.3546 92.8282 82.3901 91.6226 82.3901C90.4171 82.3901 89.4526 83.3546 89.4526 84.5601C89.4526 85.7657 90.4171 86.7301 91.6226 86.7301Z" fill="black"/>
<path opacity="0.2" d="M102.954 86.7301C104.153 86.7301 105.124 85.7586 105.124 84.5601C105.124 83.3617 104.153 82.3901 102.954 82.3901C101.756 82.3901 100.784 83.3617 100.784 84.5601C100.784 85.7586 101.756 86.7301 102.954 86.7301Z" fill="black"/>
<path opacity="0.2" d="M114.045 149.73C115.251 149.73 116.215 148.766 116.215 147.56C116.215 146.354 115.251 145.39 114.045 145.39C112.84 145.39 111.875 146.354 111.875 147.56C111.875 148.766 112.84 149.73 114.045 149.73Z" fill="black"/>
<path opacity="0.2" d="M125.137 149.73C126.342 149.73 127.307 148.766 127.307 147.56C127.307 146.354 126.342 145.39 125.137 145.39C123.931 145.39 122.967 146.354 122.967 147.56C123.208 148.766 124.172 149.73 125.137 149.73Z" fill="black"/>
<path opacity="0.2" d="M136.469 149.73C137.668 149.73 138.639 148.758 138.639 147.56C138.639 146.362 137.668 145.39 136.469 145.39C135.271 145.39 134.299 146.362 134.299 147.56C134.299 148.758 135.271 149.73 136.469 149.73Z" fill="black"/>
<path opacity="0.2" d="M147.56 149.73C148.765 149.73 149.73 148.766 149.73 147.56C149.73 146.354 148.765 145.39 147.56 145.39C146.354 145.39 145.39 146.354 145.39 147.56C145.631 148.766 146.354 149.73 147.56 149.73Z" fill="black"/>
<path opacity="0.2" d="M158.892 149.73C160.091 149.73 161.062 148.758 161.062 147.56C161.062 146.362 160.091 145.39 158.892 145.39C157.694 145.39 156.722 146.362 156.722 147.56C156.722 148.758 157.694 149.73 158.892 149.73Z" fill="black"/>
<path opacity="0.2" d="M169.984 149.73C171.189 149.73 172.154 148.766 172.154 147.56C172.154 146.354 171.189 145.39 169.984 145.39C168.778 145.39 167.814 146.354 167.814 147.56C167.814 148.766 168.778 149.73 169.984 149.73Z" fill="black"/>
<path opacity="0.2" d="M58.108 97.8212C59.3135 97.8212 60.278 96.8568 60.278 95.6512C60.278 94.4457 59.3135 93.4812 58.108 93.4812C56.9024 93.4812 55.938 94.4457 55.938 95.6512C55.938 97.0979 56.9024 97.8212 58.108 97.8212Z" fill="black"/>
<path opacity="0.2" d="M69.1983 97.8212C70.4039 97.8212 71.3683 96.8568 71.3683 95.6512C71.3683 94.4457 70.4039 93.4812 69.1983 93.4812C67.9928 93.4812 67.0283 94.4457 67.0283 95.6512C67.2694 97.0979 67.9928 97.8212 69.1983 97.8212Z" fill="black"/>
<path opacity="0.2" d="M80.5313 97.8212C81.7369 97.8212 82.7013 96.8568 82.7013 95.6512C82.7013 94.4457 81.7369 93.4812 80.5313 93.4812C79.3258 93.4812 78.3613 94.4457 78.3613 95.6512C78.3613 97.0979 79.3258 97.8212 80.5313 97.8212Z" fill="black"/>
<path opacity="0.2" d="M91.6226 97.8212C92.8282 97.8212 93.7926 96.8568 93.7926 95.6512C93.7926 94.4457 92.8282 93.4812 91.6226 93.4812C90.4171 93.4812 89.4526 94.4457 89.4526 95.6512C89.4526 97.0979 90.4171 97.8212 91.6226 97.8212Z" fill="black"/>
<path opacity="0.2" d="M102.954 97.8212C104.16 97.8212 105.124 96.8568 105.124 95.6512C105.124 94.4457 104.16 93.4812 102.954 93.4812C101.749 93.4812 100.784 94.4457 100.784 95.6512C100.784 97.0979 101.749 97.8212 102.954 97.8212Z" fill="black"/>
<path opacity="0.2" d="M114.045 160.821C115.251 160.821 116.215 159.857 116.215 158.651C116.215 157.446 115.251 156.481 114.045 156.481C112.84 156.481 111.875 157.446 111.875 158.651C111.875 160.098 112.84 160.821 114.045 160.821Z" fill="black"/>
<path opacity="0.2" d="M125.137 160.821C126.342 160.821 127.307 159.857 127.307 158.651C127.307 157.446 126.342 156.481 125.137 156.481C123.931 156.481 122.967 157.446 122.967 158.651C123.208 160.098 124.172 160.821 125.137 160.821Z" fill="black"/>
<path opacity="0.2" d="M136.469 160.821C137.675 160.821 138.639 159.857 138.639 158.651C138.639 157.446 137.675 156.481 136.469 156.481C135.264 156.481 134.299 157.446 134.299 158.651C134.299 160.098 135.264 160.821 136.469 160.821Z" fill="black"/>
<path opacity="0.2" d="M147.56 160.821C148.765 160.821 149.73 159.857 149.73 158.651C149.73 157.446 148.765 156.481 147.56 156.481C146.354 156.481 145.39 157.446 145.39 158.651C145.631 160.098 146.354 160.821 147.56 160.821Z" fill="black"/>
<path opacity="0.2" d="M158.892 160.821C160.098 160.821 161.062 159.857 161.062 158.651C161.062 157.446 160.098 156.481 158.892 156.481C157.687 156.481 156.722 157.446 156.722 158.651C156.722 160.098 157.687 160.821 158.892 160.821Z" fill="black"/>
<path opacity="0.2" d="M169.984 160.821C171.189 160.821 172.154 159.857 172.154 158.651C172.154 157.446 171.189 156.481 169.984 156.481C168.778 156.481 167.814 157.446 167.814 158.651C167.814 160.098 168.778 160.821 169.984 160.821Z" fill="black"/>
<path opacity="0.2" d="M46.7755 109.153C47.981 109.153 48.9455 108.189 48.9455 106.983C48.9455 105.778 47.981 104.813 46.7755 104.813C45.5699 104.813 44.6055 105.778 44.6055 106.983C44.8466 108.189 45.811 109.153 46.7755 109.153Z" fill="black"/>
<path opacity="0.2" d="M58.108 109.153C59.3135 109.153 60.278 108.189 60.278 106.983C60.278 105.778 59.3135 104.813 58.108 104.813C56.9024 104.813 55.938 105.778 55.938 106.983C55.938 108.189 56.9024 109.153 58.108 109.153Z" fill="black"/>
<path opacity="0.2" d="M69.1983 109.153C70.4039 109.153 71.3683 108.189 71.3683 106.983C71.3683 105.778 70.4039 104.813 69.1983 104.813C67.9928 104.813 67.0283 105.778 67.0283 106.983C67.2694 108.189 67.9928 109.153 69.1983 109.153Z" fill="black"/>
<path opacity="0.2" d="M80.5313 109.153C81.7369 109.153 82.7013 108.189 82.7013 106.983C82.7013 105.778 81.7369 104.813 80.5313 104.813C79.3258 104.813 78.3613 105.778 78.3613 106.983C78.3613 108.189 79.3258 109.153 80.5313 109.153Z" fill="black"/>
<path opacity="0.2" d="M91.6226 109.153C92.8282 109.153 93.7926 108.189 93.7926 106.983C93.7926 105.778 92.8282 104.813 91.6226 104.813C90.4171 104.813 89.4526 105.778 89.4526 106.983C89.4526 108.189 90.4171 109.153 91.6226 109.153Z" fill="black"/>
<path opacity="0.2" d="M102.954 109.153C104.16 109.153 105.124 108.189 105.124 106.983C105.124 105.778 104.16 104.813 102.954 104.813C101.749 104.813 100.784 105.778 100.784 106.983C100.784 108.189 101.749 109.153 102.954 109.153Z" fill="black"/>
<path opacity="0.2" d="M114.045 172.153C115.251 172.153 116.215 171.189 116.215 169.983C116.215 168.778 115.251 167.813 114.045 167.813C112.84 167.813 111.875 168.778 111.875 169.983C111.875 171.189 112.84 172.153 114.045 172.153Z" fill="black"/>
<path opacity="0.2" d="M125.137 172.153C126.342 172.153 127.307 171.189 127.307 169.983C127.307 168.778 126.342 167.813 125.137 167.813C123.931 167.813 122.967 168.778 122.967 169.983C123.208 171.189 124.172 172.153 125.137 172.153Z" fill="black"/>
<path opacity="0.2" d="M136.469 172.153C137.675 172.153 138.639 171.189 138.639 169.983C138.639 168.778 137.675 167.813 136.469 167.813C135.264 167.813 134.299 168.778 134.299 169.983C134.299 171.189 135.264 172.153 136.469 172.153Z" fill="black"/>
<path opacity="0.2" d="M147.56 172.153C148.765 172.153 149.73 171.189 149.73 169.983C149.73 168.778 148.765 167.813 147.56 167.813C146.354 167.813 145.39 168.778 145.39 169.983C145.631 171.189 146.354 172.153 147.56 172.153Z" fill="black"/>
<path opacity="0.2" d="M158.892 172.153C160.098 172.153 161.062 171.189 161.062 169.983C161.062 168.778 160.098 167.813 158.892 167.813C157.687 167.813 156.722 168.778 156.722 169.983C156.722 171.189 157.687 172.153 158.892 172.153Z" fill="black"/>
<path opacity="0.2" d="M169.984 172.153C171.189 172.153 172.154 171.189 172.154 169.983C172.154 168.778 171.189 167.813 169.984 167.813C168.778 167.813 167.814 168.778 167.814 169.983C167.814 171.189 168.778 172.153 169.984 172.153Z" fill="black"/>
<path opacity="0.2" d="M35.6842 142.244C36.8897 142.244 37.8542 141.28 37.8542 140.074C37.8542 138.869 36.8897 137.904 35.6842 137.904C34.4786 137.904 33.5142 138.869 33.5142 140.074C33.5142 141.28 34.4786 142.244 35.6842 142.244Z" fill="black"/>
<path opacity="0.2" d="M46.7755 142.486C47.9739 142.486 48.9455 141.514 48.9455 140.315C48.9455 139.117 47.9739 138.146 46.7755 138.146C45.577 138.146 44.6055 139.117 44.6055 140.315C44.6055 141.514 45.577 142.486 46.7755 142.486Z" fill="black"/>
<path opacity="0.2" d="M58.108 142.244C59.3135 142.244 60.278 141.28 60.278 140.074C60.278 138.869 59.3135 137.904 58.108 137.904C56.9024 137.904 55.938 138.869 55.938 140.074C55.938 141.28 56.9024 142.244 58.108 142.244Z" fill="black"/>
<path opacity="0.2" d="M69.1983 142.244C70.4039 142.244 71.3683 141.28 71.3683 140.074C71.3683 138.869 70.4039 137.904 69.1983 137.904C67.9928 137.904 67.0283 138.869 67.0283 140.074C67.2694 141.28 67.9928 142.244 69.1983 142.244Z" fill="black"/>
<path opacity="0.2" d="M80.5313 142.486C81.7298 142.486 82.7013 141.514 82.7013 140.315C82.7013 139.117 81.7298 138.146 80.5313 138.146C79.3329 138.146 78.3613 139.117 78.3613 140.315C78.3613 141.514 79.3329 142.486 80.5313 142.486Z" fill="black"/>
<path opacity="0.2" d="M91.6226 142.244C92.8282 142.244 93.7926 141.28 93.7926 140.074C93.7926 138.869 92.8282 137.904 91.6226 137.904C90.4171 137.904 89.4526 138.869 89.4526 140.074C89.4526 141.28 90.4171 142.244 91.6226 142.244Z" fill="black"/>
<path opacity="0.2" d="M102.954 142.486C104.153 142.486 105.124 141.514 105.124 140.315C105.124 139.117 104.153 138.146 102.954 138.146C101.756 138.146 100.784 139.117 100.784 140.315C100.784 141.514 101.756 142.486 102.954 142.486Z" fill="black"/>
<path opacity="0.2" d="M24.5929 153.577C25.7984 153.577 26.7629 152.612 26.7629 151.407C26.7629 150.201 25.7984 149.237 24.5929 149.237C23.3873 149.237 22.4229 150.201 22.4229 151.407C22.4229 152.612 23.3873 153.577 24.5929 153.577Z" fill="black"/>
<path opacity="0.2" d="M35.6842 153.577C36.8897 153.577 37.8542 152.612 37.8542 151.407C37.8542 150.201 36.8897 149.237 35.6842 149.237C34.4786 149.237 33.5142 150.201 33.5142 151.407C33.5142 152.612 34.4786 153.577 35.6842 153.577Z" fill="black"/>
<path opacity="0.2" d="M46.7755 153.577C47.981 153.577 48.9455 152.612 48.9455 151.407C48.9455 150.201 47.981 149.237 46.7755 149.237C45.5699 149.237 44.6055 150.201 44.6055 151.407C44.8466 152.612 45.811 153.577 46.7755 153.577Z" fill="black"/>
<path opacity="0.2" d="M58.108 153.577C59.3135 153.577 60.278 152.612 60.278 151.407C60.278 150.201 59.3135 149.237 58.108 149.237C56.9024 149.237 55.938 150.201 55.938 151.407C55.938 152.612 56.9024 153.577 58.108 153.577Z" fill="black"/>
<path opacity="0.2" d="M69.1983 153.577C70.4039 153.577 71.3683 152.612 71.3683 151.407C71.3683 150.201 70.4039 149.237 69.1983 149.237C67.9928 149.237 67.0283 150.201 67.0283 151.407C67.2694 152.612 67.9928 153.577 69.1983 153.577Z" fill="black"/>
<path opacity="0.2" d="M80.5313 153.577C81.7369 153.577 82.7013 152.612 82.7013 151.407C82.7013 150.201 81.7369 149.237 80.5313 149.237C79.3258 149.237 78.3613 150.201 78.3613 151.407C78.3613 152.612 79.3258 153.577 80.5313 153.577Z" fill="black"/>
<path opacity="0.2" d="M91.6226 153.577C92.8282 153.577 93.7926 152.612 93.7926 151.407C93.7926 150.201 92.8282 149.237 91.6226 149.237C90.4171 149.237 89.4526 150.201 89.4526 151.407C89.4526 152.612 90.4171 153.577 91.6226 153.577Z" fill="black"/>
<path opacity="0.2" d="M102.954 153.577C104.16 153.577 105.124 152.612 105.124 151.407C105.124 150.201 104.16 149.237 102.954 149.237C101.749 149.237 100.784 150.201 100.784 151.407C100.784 152.612 101.749 153.577 102.954 153.577Z" fill="black"/>
<path opacity="0.2" d="M13.2613 164.668C14.4669 164.668 15.4313 163.703 15.4313 162.498C15.4313 161.292 14.4669 160.569 13.2613 160.569C12.0558 160.569 11.0913 161.533 11.0913 162.739C11.0913 163.944 12.0558 164.668 13.2613 164.668Z" fill="black"/>
<path opacity="0.2" d="M24.5929 164.668C25.7913 164.668 26.7629 163.696 26.7629 162.498C26.7629 161.299 25.7913 160.328 24.5929 160.328C23.3944 160.328 22.4229 161.299 22.4229 162.498C22.4229 163.696 23.3944 164.668 24.5929 164.668Z" fill="black"/>
<path opacity="0.2" d="M35.6842 164.668C36.8897 164.668 37.8542 163.703 37.8542 162.498C37.8542 161.292 36.8897 160.328 35.6842 160.328C34.4786 160.328 33.5142 161.292 33.5142 162.498C33.5142 163.703 34.4786 164.668 35.6842 164.668Z" fill="black"/>
<path opacity="0.2" d="M46.7755 164.668C47.9739 164.668 48.9455 163.696 48.9455 162.498C48.9455 161.299 47.9739 160.328 46.7755 160.328C45.577 160.328 44.6055 161.299 44.6055 162.498C44.6055 163.696 45.577 164.668 46.7755 164.668Z" fill="black"/>
<path opacity="0.2" d="M58.108 164.668C59.3135 164.668 60.278 163.703 60.278 162.498C60.278 161.292 59.3135 160.328 58.108 160.328C56.9024 160.328 55.938 161.292 55.938 162.498C55.938 163.703 56.9024 164.668 58.108 164.668Z" fill="black"/>
<path opacity="0.2" d="M69.1983 164.668C70.4039 164.668 71.3683 163.703 71.3683 162.498C71.3683 161.292 70.4039 160.328 69.1983 160.328C67.9928 160.328 67.0283 161.292 67.0283 162.498C67.0283 163.703 67.9928 164.668 69.1983 164.668Z" fill="black"/>
<path opacity="0.2" d="M80.5313 164.668C81.7298 164.668 82.7013 163.696 82.7013 162.498C82.7013 161.299 81.7298 160.328 80.5313 160.328C79.3329 160.328 78.3613 161.299 78.3613 162.498C78.3613 163.696 79.3329 164.668 80.5313 164.668Z" fill="black"/>
<path opacity="0.2" d="M91.6226 164.668C92.8282 164.668 93.7926 163.703 93.7926 162.498C93.7926 161.292 92.8282 160.328 91.6226 160.328C90.4171 160.328 89.4526 161.292 89.4526 162.498C89.4526 163.703 90.4171 164.668 91.6226 164.668Z" fill="black"/>
<path opacity="0.2" d="M102.954 164.668C104.153 164.668 105.124 163.696 105.124 162.498C105.124 161.299 104.153 160.328 102.954 160.328C101.756 160.328 100.784 161.299 100.784 162.498C100.784 163.696 101.756 164.668 102.954 164.668Z" fill="black"/>
<path opacity="0.2" d="M2.17 176C3.37556 176 4.34 175.035 4.34 173.83C4.34 172.624 3.37556 171.66 2.17 171.66C0.964444 171.66 0 172.624 0 173.83C0 175.035 0.964444 176 2.17 176Z" fill="black"/>
<path opacity="0.2" d="M13.2613 176C14.4669 176 15.4313 175.035 15.4313 173.83C15.4313 172.624 14.4669 171.66 13.2613 171.66C12.0558 171.66 11.0913 172.624 11.0913 173.83C11.0913 175.035 12.0558 176 13.2613 176Z" fill="black"/>
<path opacity="0.2" d="M24.5929 176C25.7984 176 26.7629 175.035 26.7629 173.83C26.7629 172.624 25.7984 171.66 24.5929 171.66C23.3873 171.66 22.4229 172.624 22.4229 173.83C22.4229 175.035 23.3873 176 24.5929 176Z" fill="black"/>
<path opacity="0.2" d="M35.6842 176C36.8897 176 37.8542 175.035 37.8542 173.83C37.8542 172.624 36.8897 171.66 35.6842 171.66C34.4786 171.66 33.5142 172.624 33.5142 173.83C33.5142 175.035 34.4786 176 35.6842 176Z" fill="black"/>
<path opacity="0.2" d="M46.7755 176C47.981 176 48.9455 175.035 48.9455 173.83C48.9455 172.624 47.981 171.66 46.7755 171.66C45.5699 171.66 44.6055 172.624 44.6055 173.83C44.8466 175.035 45.811 176 46.7755 176Z" fill="black"/>
<path opacity="0.2" d="M58.108 176C59.3135 176 60.278 175.035 60.278 173.83C60.278 172.624 59.3135 171.66 58.108 171.66C56.9024 171.66 55.938 172.624 55.938 173.83C55.938 175.035 56.9024 176 58.108 176Z" fill="black"/>
<path opacity="0.2" d="M69.1983 176C70.4039 176 71.3683 175.035 71.3683 173.83C71.3683 172.624 70.4039 171.66 69.1983 171.66C67.9928 171.66 67.0283 172.624 67.0283 173.83C67.2694 175.035 67.9928 176 69.1983 176Z" fill="black"/>
<path opacity="0.2" d="M80.5313 176C81.7369 176 82.7013 175.035 82.7013 173.83C82.7013 172.624 81.7369 171.66 80.5313 171.66C79.3258 171.66 78.3613 172.624 78.3613 173.83C78.3613 175.035 79.3258 176 80.5313 176Z" fill="black"/>
<path opacity="0.2" d="M91.6226 176C92.8282 176 93.7926 175.035 93.7926 173.83C93.7926 172.624 92.8282 171.66 91.6226 171.66C90.4171 171.66 89.4526 172.624 89.4526 173.83C89.4526 175.035 90.4171 176 91.6226 176Z" fill="black"/>
<path opacity="0.2" d="M102.954 176C104.16 176 105.124 175.035 105.124 173.83C105.124 172.624 104.16 171.66 102.954 171.66C101.749 171.66 100.784 172.624 100.784 173.83C100.784 175.035 101.749 176 102.954 176Z" fill="black"/>
</g>
</svg>
