<svg xmlns="http://www.w3.org/2000/svg" xmlns:xlink="http://www.w3.org/1999/xlink" width="217" height="195" fill="none" xmlns:v="https://vecta.io/nano"><style><![CDATA[.B{opacity:.2}]]></style><g fill="#000" class="B"><use xlink:href="#B" class="B"/><path d="M203.498 15.431a2.16 2.16 0 0 0 2.17-2.17 2.17 2.17 0 1 0-4.34 0c.241 1.206 1.205 2.17 2.17 2.17zm11.332 0a2.16 2.16 0 0 0 2.17-2.17 2.17 2.17 0 1 0-4.34 0 2.16 2.16 0 0 0 2.17 2.17z" class="B"/><use xlink:href="#C" class="B"/><use xlink:href="#D" class="B"/><use xlink:href="#C" x="22.423" class="B"/><use xlink:href="#C" x="-11.092" y="11.332" class="B"/><use xlink:href="#E" class="B"/><use xlink:href="#D" y="11.332" class="B"/><use xlink:href="#E" x="22.423" class="B"/><use xlink:href="#C" x="-22.423" y="22.424" class="B"/><use xlink:href="#C" x="-11.092" y="22.424" class="B"/><use xlink:href="#C" y="22.424" class="B"/><use xlink:href="#D" y="22.424" class="B"/><use xlink:href="#C" x="22.423" y="22.424" class="B"/><use xlink:href="#E" x="-33.515" y="22.424" class="B"/><use xlink:href="#C" x="-22.423" y="33.756" class="B"/><use xlink:href="#C" x="-11.092" y="33.756" class="B"/><use xlink:href="#E" y="22.424" class="B"/><use xlink:href="#D" y="33.756" class="B"/><use xlink:href="#E" x="22.423" y="22.424" class="B"/><use xlink:href="#F" class="B"/><use xlink:href="#C" x="-33.515" y="44.847" class="B"/><use xlink:href="#C" x="-22.423" y="44.847" class="B"/><use xlink:href="#C" x="-11.092" y="44.847" class="B"/><use xlink:href="#C" y="44.847" class="B"/><use xlink:href="#D" y="44.847" class="B"/><use xlink:href="#C" x="22.423" y="44.847" class="B"/><use xlink:href="#G" class="B"/><use xlink:href="#H" class="B"/><use xlink:href="#G" x="22.423" class="B"/><use xlink:href="#I" class="B"/><use xlink:href="#G" x="44.846" class="B"/><use xlink:href="#I" x="22.423" class="B"/><use xlink:href="#J" class="B"/><use xlink:href="#G" x="78.361" class="B"/><use xlink:href="#D" x="-78.361" y="67.27" class="B"/><use xlink:href="#E" x="-55.938" y="55.938" class="B"/><use xlink:href="#F" y="22.423" class="B"/><use xlink:href="#E" x="-33.515" y="55.938" class="B"/><use xlink:href="#C" x="-22.423" y="67.27" class="B"/><use xlink:href="#C" x="-11.092" y="67.27" class="B"/><use xlink:href="#K" class="B"/><use xlink:href="#D" y="67.27" class="B"/><use xlink:href="#K" x="22.423" class="B"/><use xlink:href="#C" x="-78.362" y="78.361" class="B"/><use xlink:href="#D" x="-78.361" y="78.361" class="B"/><use xlink:href="#C" x="-55.938" y="78.361" class="B"/><use xlink:href="#F" y="33.514" class="B"/><use xlink:href="#C" x="-33.515" y="78.361" class="B"/><use xlink:href="#C" x="-22.423" y="78.361" class="B"/><use xlink:href="#C" x="-11.092" y="78.361" class="B"/><use xlink:href="#C" y="78.361" class="B"/><use xlink:href="#D" y="78.361" class="B"/><use xlink:href="#C" x="22.423" y="78.361" class="B"/><use xlink:href="#B" x="-111.876" y="70.876" class="B"/><use xlink:href="#C" x="-78.362" y="67.694" class="B"/><use xlink:href="#D" x="-78.361" y="67.694" class="B"/><use xlink:href="#B" x="-78.361" y="89.876" class="B"/><use xlink:href="#F" y="22.847" class="B"/><use xlink:href="#B" x="-55.938" y="89.876" class="B"/><use xlink:href="#C" x="-22.423" y="67.694" class="B"/><use xlink:href="#C" x="-11.092" y="67.694" class="B"/><use xlink:href="#B" x="-22.423" y="89.876" class="B"/><use xlink:href="#D" y="67.694" class="B"/><use xlink:href="#B" y="89.876" class="B"/><use xlink:href="#C" x="-100.784" y="59.785" class="B"/><use xlink:href="#K" x="-89.453" y="-7.485" class="B"/><use xlink:href="#C" x="-78.362" y="78.785" class="B"/><use xlink:href="#L" class="B"/><use xlink:href="#B" x="-78.361" y="100.967" class="B"/><use xlink:href="#M" class="B"/><use xlink:href="#B" x="-55.938" y="100.967" class="B"/><use xlink:href="#C" x="-22.423" y="78.785" class="B"/><use xlink:href="#C" x="-11.092" y="78.785" class="B"/><use xlink:href="#B" x="-22.423" y="100.967" class="B"/><use xlink:href="#L" x="78.361" class="B"/><use xlink:href="#B" y="100.967" class="B"/><use xlink:href="#C" x="-111.876" y="71.117" class="B"/><use xlink:href="#C" x="-100.784" y="71.117" class="B"/><use xlink:href="#C" x="-89.453" y="71.117" class="B"/><use xlink:href="#C" x="-78.362" y="90.117" class="B"/><use xlink:href="#L" y="11.332" class="B"/><use xlink:href="#C" x="-55.938" y="90.117" class="B"/><use xlink:href="#M" y="11.332" class="B"/><use xlink:href="#C" x="-33.515" y="90.117" class="B"/><use xlink:href="#C" x="-22.423" y="90.117" class="B"/><use xlink:href="#C" x="-11.092" y="90.117" class="B"/><use xlink:href="#C" y="90.117" class="B"/><use xlink:href="#L" x="78.361" y="11.332" class="B"/><use xlink:href="#C" x="22.423" y="90.117" class="B"/><use xlink:href="#N" class="B"/><use xlink:href="#E" x="-111.876" y="48.876" class="B"/><use xlink:href="#C" x="-100.784" y="60.208" class="B"/><use xlink:href="#E" x="-89.453" y="48.876" class="B"/><use xlink:href="#C" x="-78.362" y="101.208" class="B"/><use xlink:href="#D" x="-78.361" y="101.208" class="B"/><use xlink:href="#B" x="-78.361" y="123.39" class="B"/><use xlink:href="#F" y="56.361" class="B"/><use xlink:href="#B" x="-55.938" y="123.39" class="B"/><use xlink:href="#C" x="-22.423" y="101.208" class="B"/><use xlink:href="#C" x="-11.092" y="101.208" class="B"/><use xlink:href="#B" x="-22.423" y="123.39" class="B"/><use xlink:href="#D" y="101.208" class="B"/><use xlink:href="#B" y="123.39" class="B"/><use xlink:href="#I" x="-111.876" y="15.361" class="B"/><path d="M69.198 97.821a2.16 2.16 0 1 0 0-4.34 2.16 2.16 0 0 0-2.17 2.17c.241 1.447.965 2.17 2.17 2.17z" class="B"/><use xlink:href="#G" x="-55.938" y="15.361" class="B"/><use xlink:href="#G" x="-44.846" y="15.361" class="B"/><use xlink:href="#G" x="-33.515" y="15.361" class="B"/><use xlink:href="#G" x="-22.424" y="56.361" class="B"/><use xlink:href="#J" x="-78.361" y="56.361" class="B"/><use xlink:href="#G" y="56.361" class="B"/><use xlink:href="#H" y="56.361" class="B"/><use xlink:href="#G" x="22.423" y="56.361" class="B"/><use xlink:href="#I" y="56.361" class="B"/><use xlink:href="#G" x="44.846" y="56.361" class="B"/><use xlink:href="#I" x="22.423" y="56.361" class="B"/><use xlink:href="#J" y="56.361" class="B"/><use xlink:href="#G" x="78.361" y="56.361" class="B"/><path d="M46.776 109.153a2.16 2.16 0 1 0 0-4.34 2.16 2.16 0 0 0-2.17 2.17c.241 1.206 1.206 2.17 2.17 2.17z" class="B"/><use xlink:href="#C" x="-134.299" y="82.631" class="B"/><use xlink:href="#N" y="22.423" class="B"/><use xlink:href="#C" x="-111.876" y="82.631" class="B"/><use xlink:href="#C" x="-100.784" y="82.631" class="B"/><use xlink:href="#C" x="-89.453" y="82.631" class="B"/><use xlink:href="#C" x="-78.362" y="123.631" class="B"/><use xlink:href="#D" x="-78.361" y="123.631" class="B"/><use xlink:href="#C" x="-55.938" y="123.631" class="B"/><use xlink:href="#F" y="78.784" class="B"/><use xlink:href="#C" x="-33.515" y="123.631" class="B"/><use xlink:href="#C" x="-22.423" y="123.631" class="B"/><use xlink:href="#C" x="-11.092" y="123.631" class="B"/><use xlink:href="#C" y="123.631" class="B"/><use xlink:href="#D" y="123.631" class="B"/><use xlink:href="#C" x="22.423" y="123.631" class="B"/><use xlink:href="#C" x="-156.723" y="93.722" class="B"/><use xlink:href="#B" x="-168.054" y="116.146" class="B"/><use xlink:href="#C" x="-134.299" y="93.722" class="B"/><use xlink:href="#N" y="33.514" class="B"/><use xlink:href="#B" x="-134.299" y="116.146" class="B"/><use xlink:href="#C" x="-100.784" y="93.722" class="B"/><use xlink:href="#B" x="-111.876" y="116.146" class="B"/><use xlink:href="#C" x="-78.362" y="134.722" class="B"/><use xlink:href="#D" x="-78.361" y="134.722" class="B"/><use xlink:href="#K" x="-55.938" y="67.694" class="B"/><use xlink:href="#F" y="89.875" class="B"/><use xlink:href="#K" x="-33.515" y="67.694" class="B"/><use xlink:href="#C" x="-22.423" y="134.722" class="B"/><use xlink:href="#C" x="-11.092" y="134.722" class="B"/><use xlink:href="#O" class="B"/><use xlink:href="#D" y="134.722" class="B"/><use xlink:href="#O" x="22.423" class="B"/><use xlink:href="#C" x="-167.814" y="105.055" class="B"/><use xlink:href="#C" x="-156.723" y="105.055" class="B"/><use xlink:href="#P" class="B"/><use xlink:href="#C" x="-134.299" y="105.055" class="B"/><path d="M69.198 131.577a2.16 2.16 0 1 0 0-4.34 2.16 2.16 0 0 0-2.17 2.17c.241 1.205.965 2.17 2.17 2.17z" class="B"/><use xlink:href="#C" x="-111.876" y="105.055" class="B"/><use xlink:href="#C" x="-100.784" y="105.055" class="B"/><use xlink:href="#C" x="-89.453" y="105.055" class="B"/><use xlink:href="#C" x="-78.362" y="146.055" class="B"/><use xlink:href="#L" y="67.27" class="B"/><use xlink:href="#C" x="-55.938" y="146.055" class="B"/><use xlink:href="#M" y="67.27" class="B"/><use xlink:href="#C" x="-33.515" y="146.055" class="B"/><use xlink:href="#C" x="-22.423" y="146.055" class="B"/><use xlink:href="#C" x="-11.092" y="146.055" class="B"/><use xlink:href="#C" y="146.055" class="B"/><use xlink:href="#L" x="78.361" y="67.27" class="B"/><use xlink:href="#C" x="22.423" y="146.055" class="B"/><path d="M13.261 142.668a2.16 2.16 0 0 0 2.17-2.17c0-1.206-.964-1.929-2.17-1.929a2.16 2.16 0 0 0-2.17 2.17c0 1.205.964 1.929 2.17 1.929z" class="B"/><use xlink:href="#O" x="-167.814" y="-18.818" class="B"/><use xlink:href="#C" x="-156.723" y="116.146" class="B"/><use xlink:href="#O" x="-145.631" y="-18.818" class="B"/><use xlink:href="#C" x="-134.299" y="116.146" class="B"/><use xlink:href="#C" x="-123.209" y="116.146" class="B"/><use xlink:href="#O" x="-111.876" y="-18.818" class="B"/><use xlink:href="#C" x="-100.784" y="116.146" class="B"/><use xlink:href="#O" x="-89.453" y="-18.818" class="B"/><use xlink:href="#C" x="-78.362" y="157.146" class="B"/><use xlink:href="#Q" class="B"/><use xlink:href="#O" x="-55.938" y="22.182" class="B"/><use xlink:href="#C" x="-44.847" y="157.146" class="B"/><use xlink:href="#O" x="-33.515" y="22.182" class="B"/><use xlink:href="#C" x="-22.423" y="157.146" class="B"/><use xlink:href="#C" x="-11.092" y="157.146" class="B"/><use xlink:href="#O" y="22.182" class="B"/><use xlink:href="#Q" x="78.361" class="B"/><use xlink:href="#O" x="22.423" y="22.182" class="B"/><use xlink:href="#C" x="-190.237" y="127.478" class="B"/><use xlink:href="#C" x="-179.146" y="127.478" class="B"/><use xlink:href="#C" x="-167.814" y="127.478" class="B"/><use xlink:href="#C" x="-156.723" y="127.478" class="B"/><use xlink:href="#P" y="22.423" class="B"/><use xlink:href="#C" x="-134.299" y="127.478" class="B"/><path d="M69.198 154a2.16 2.16 0 1 0 0-4.34 2.16 2.16 0 0 0-2.17 2.17c.241 1.205.965 2.17 2.17 2.17z" class="B"/><use xlink:href="#C" x="-111.876" y="127.478" class="B"/><use xlink:href="#C" x="-100.784" y="127.478" class="B"/><use xlink:href="#C" x="-89.453" y="127.478" class="B"/><use xlink:href="#C" x="-78.362" y="168.478" class="B"/><use xlink:href="#D" x="-78.361" y="168.478" class="B"/><use xlink:href="#C" x="-55.938" y="168.478" class="B"/><use xlink:href="#F" y="123.631" class="B"/><use xlink:href="#C" x="-33.515" y="168.478" class="B"/><use xlink:href="#C" x="-22.423" y="168.478" class="B"/><use xlink:href="#C" x="-11.092" y="168.478" class="B"/><use xlink:href="#C" y="168.478" class="B"/><use xlink:href="#D" y="168.478" class="B"/><use xlink:href="#C" x="22.423" y="168.478" class="B"/></g><defs ><path id="B" d="M214.83 4.34a2.17 2.17 0 1 0 0-4.34 2.17 2.17 0 1 0 0 4.34z"/><path id="C" d="M192.407 26.522a2.16 2.16 0 1 0 0-4.34 2.16 2.16 0 1 0 0 4.34z"/><path id="D" d="M203.498 26.522a2.16 2.16 0 1 0 0-4.34 2.16 2.16 0 0 0-2.17 2.17c.241 1.206 1.205 2.17 2.17 2.17z"/><path id="E" d="M192.407 37.854a2.17 2.17 0 1 0 0-4.34 2.17 2.17 0 0 0 0 4.34z"/><path id="F" d="M147.56 71.369a2.16 2.16 0 1 0 0-4.34 2.16 2.16 0 0 0-2.17 2.17c.241 1.206.964 2.17 2.17 2.17z"/><path id="G" d="M136.469 82.46a2.16 2.16 0 1 0 0-4.34 2.16 2.16 0 0 0-2.17 2.17c0 1.447.965 2.17 2.17 2.17z"/><path id="H" d="M147.56 82.46a2.16 2.16 0 1 0 0-4.34 2.16 2.16 0 0 0-2.17 2.17c.241 1.447.964 2.17 2.17 2.17z"/><path id="I" d="M169.984 82.46a2.16 2.16 0 1 0 0-4.34 2.16 2.16 0 0 0-2.17 2.17c0 1.447.964 2.17 2.17 2.17z"/><path id="J" d="M203.498 82.46a2.16 2.16 0 1 0 0-4.34 2.16 2.16 0 0 0-2.17 2.17c.241 1.447 1.205 2.17 2.17 2.17z"/><path id="K" d="M192.407 93.792a2.17 2.17 0 0 0 0-4.34 2.17 2.17 0 0 0 0 4.34z"/><path id="L" d="M125.137 105.307a2.16 2.16 0 1 0 0-4.34 2.16 2.16 0 0 0-2.17 2.17c.241 1.205 1.205 2.17 2.17 2.17z"/><path id="M" d="M147.56 105.307a2.16 2.16 0 1 0 0-4.34 2.16 2.16 0 0 0-2.17 2.17c.241 1.205.964 2.17 2.17 2.17z"/><path id="N" d="M69.198 86.73a2.16 2.16 0 1 0 0-4.34 2.16 2.16 0 0 0-2.17 2.17c.241 1.206.965 2.17 2.17 2.17z"/><path id="O" d="M192.407 161.486a2.17 2.17 0 0 0 0-4.34 2.17 2.17 0 1 0 0 4.34z"/><path id="P" d="M46.776 131.577a2.16 2.16 0 1 0 0-4.34 2.16 2.16 0 0 0-2.17 2.17c.241 1.205 1.206 2.17 2.17 2.17z"/><path id="Q" d="M125.137 183.668a2.16 2.16 0 1 0 0-4.34 2.16 2.16 0 0 0-2.17 2.17c0 1.205 1.205 2.17 2.17 2.17z"/></defs></svg>