<svg xmlns="http://www.w3.org/2000/svg" width="189" height="217" fill="none"  xmlns:v="https://vecta.io/nano"><path opacity=".04" d="M181.315 37.854a2.16 2.16 0 1 0 0-4.34 2.16 2.16 0 1 0 0 4.34zm-11.331 11.092a2.16 2.16 0 1 0 0-4.34 2.16 2.16 0 1 0 0 4.34zm11.331 0a2.16 2.16 0 1 0 0-4.34 2.16 2.16 0 1 0 0 4.34zm-22.423 11.332a2.17 2.17 0 1 0 0-4.34 2.17 2.17 0 0 0 0 4.34zm11.092 0a2.16 2.16 0 1 0 0-4.34 2.16 2.16 0 1 0 0 4.34zm11.331 0a2.16 2.16 0 1 0 0-4.34 2.16 2.16 0 1 0 0 4.34zM147.56 71.369a2.16 2.16 0 1 0 0-4.34 2.16 2.16 0 0 0-2.17 2.17c.241 1.205.964 2.17 2.17 2.17zm11.332 0a2.16 2.16 0 1 0 0-4.34 2.16 2.16 0 1 0 0 4.34zm11.092 0a2.16 2.16 0 1 0 0-4.34 2.16 2.16 0 1 0 0 4.34zm11.331 0a2.16 2.16 0 1 0 0-4.34 2.16 2.16 0 1 0 0 4.34zM136.469 82.46a2.16 2.16 0 1 0 0-4.34 2.16 2.16 0 0 0-2.17 2.17c0 1.447.965 2.17 2.17 2.17zm11.091 0a2.16 2.16 0 1 0 0-4.34 2.16 2.16 0 0 0-2.17 2.17c.241 1.447.964 2.17 2.17 2.17zm11.332 0a2.16 2.16 0 1 0 0-4.34 2.16 2.16 0 0 0-2.17 2.17c0 1.447.965 2.17 2.17 2.17zm11.092 0a2.16 2.16 0 1 0 0-4.34 2.16 2.16 0 0 0-2.17 2.17c0 1.447.964 2.17 2.17 2.17zm11.331 0a2.16 2.16 0 1 0 0-4.34 2.16 2.16 0 0 0-2.17 2.17c0 1.447.965 2.17 2.17 2.17zm-56.178 11.332a2.16 2.16 0 1 0 0-4.34 2.16 2.16 0 0 0-2.17 2.17c.241 1.206 1.205 2.17 2.17 2.17zm11.332 0a2.17 2.17 0 1 0 0-4.34 2.17 2.17 0 0 0 0 4.34zm11.091 0a2.16 2.16 0 1 0 0-4.34 2.16 2.16 0 0 0-2.17 2.17c.241 1.206.964 2.17 2.17 2.17zm11.332 0a2.17 2.17 0 1 0 0-4.34 2.17 2.17 0 0 0 0 4.34zm11.092 0a2.16 2.16 0 1 0 0-4.34 2.16 2.16 0 1 0 0 4.34zm11.331 0a2.16 2.16 0 1 0 0-4.34 2.16 2.16 0 1 0 0 4.34zm-67.27 11.091a2.16 2.16 0 1 0 0-4.34 2.16 2.16 0 1 0 0 4.34zm11.092 0a2.16 2.16 0 1 0 0-4.34 2.16 2.16 0 0 0-2.17 2.17c.241 1.206 1.205 2.17 2.17 2.17zm11.332 0a2.16 2.16 0 1 0 0-4.34 2.16 2.16 0 1 0 0 4.34zm11.091 0a2.16 2.16 0 1 0 0-4.34 2.16 2.16 0 0 0-2.17 2.17c.241 1.206.964 2.17 2.17 2.17zm11.332 0a2.16 2.16 0 1 0 0-4.34 2.16 2.16 0 1 0 0 4.34zm11.092 0a2.16 2.16 0 1 0 0-4.34 2.16 2.16 0 1 0 0 4.34zm11.331 0a2.16 2.16 0 1 0 0-4.34 2.16 2.16 0 1 0 0 4.34zm-78.361-29.667a2.17 2.17 0 1 0 0-4.34 2.17 2.17 0 0 0 0 4.34zm11.091 41a2.16 2.16 0 1 0 0-4.34 2.16 2.16 0 1 0 0 4.34zm11.092 0a2.16 2.16 0 1 0 0-4.34 2.16 2.16 0 0 0-2.17 2.17c.241 1.205 1.205 2.17 2.17 2.17zm11.332 0a2.17 2.17 0 1 0 0-4.34 2.17 2.17 0 0 0 0 4.34zm11.091 0a2.16 2.16 0 1 0 0-4.34 2.16 2.16 0 0 0-2.17 2.17c.241 1.205.964 2.17 2.17 2.17zm11.332 0a2.17 2.17 0 1 0 0-4.34 2.17 2.17 0 0 0 0 4.34zm11.092 0a2.16 2.16 0 1 0 0-4.34 2.16 2.16 0 1 0 0 4.34zm11.331 0a2.16 2.16 0 1 0 0-4.34 2.16 2.16 0 1 0 0 4.34zm-89.692-29.91a2.16 2.16 0 1 0 0-4.34 2.16 2.16 0 1 0 0 4.34zm11.331 0a2.17 2.17 0 1 0 0-4.339 2.17 2.17 0 0 0 0 4.34zm11.091 41.001a2.16 2.16 0 1 0 0-4.34 2.16 2.16 0 1 0 0 4.34zm11.092 0a2.16 2.16 0 1 0 0-4.34 2.16 2.16 0 0 0-2.17 2.17c.241 1.205 1.205 2.17 2.17 2.17zm11.332 0a2.17 2.17 0 1 0 0-4.34 2.17 2.17 0 0 0 0 4.34zm11.091 0a2.16 2.16 0 1 0 0-4.34 2.16 2.16 0 0 0-2.17 2.17c.241 1.205.964 2.17 2.17 2.17zm11.332 0a2.17 2.17 0 1 0 0-4.34 2.17 2.17 0 0 0 0 4.34zm11.092 0a2.16 2.16 0 1 0 0-4.34 2.16 2.16 0 1 0 0 4.34zm11.331 0a2.16 2.16 0 1 0 0-4.34 2.16 2.16 0 1 0 0 4.34zM80.531 97.639a2.16 2.16 0 1 0 0-4.34 2.16 2.16 0 1 0 0 4.34zm11.092 0a2.16 2.16 0 1 0 0-4.34 2.16 2.16 0 1 0 0 4.34zm11.331 0a2.16 2.16 0 1 0 0-4.34 2.16 2.16 0 1 0 0 4.34zm11.091 41a2.16 2.16 0 1 0 0-4.34 2.16 2.16 0 1 0 0 4.34zm11.092 0a2.16 2.16 0 1 0 0-4.34 2.16 2.16 0 0 0-2.17 2.17c.241 1.205 1.205 2.17 2.17 2.17zm11.332 0a2.16 2.16 0 1 0 0-4.34 2.16 2.16 0 1 0 0 4.34zm11.091 0a2.16 2.16 0 1 0 0-4.34 2.16 2.16 0 0 0-2.17 2.17c.241 1.205.964 2.17 2.17 2.17zm11.332 0a2.16 2.16 0 1 0 0-4.34 2.16 2.16 0 1 0 0 4.34zm11.092 0a2.16 2.16 0 1 0 0-4.34 2.16 2.16 0 1 0 0 4.34zm11.331 0a2.16 2.16 0 1 0 0-4.34 2.16 2.16 0 1 0 0 4.34zM69.198 108.73a2.16 2.16 0 1 0 0-4.34 2.16 2.16 0 0 0-2.17 2.17c.241 1.206.965 2.17 2.17 2.17zm11.333 0a2.17 2.17 0 1 0 .001-4.34 2.17 2.17 0 0 0 0 4.34zm11.092 0a2.16 2.16 0 1 0 0-4.34 2.16 2.16 0 1 0 0 4.34zm11.331 0a2.17 2.17 0 1 0 .001-4.339 2.17 2.17 0 0 0-.001 4.339zm11.091 41a2.16 2.16 0 1 0 0-4.34 2.16 2.16 0 1 0 0 4.34zm11.092 0a2.16 2.16 0 1 0 0-4.34 2.16 2.16 0 0 0-2.17 2.17c.241 1.206 1.205 2.17 2.17 2.17zm11.332 0a2.17 2.17 0 1 0 0-4.34 2.17 2.17 0 0 0 0 4.34zm11.091 0a2.16 2.16 0 1 0 0-4.34 2.16 2.16 0 0 0-2.17 2.17c.241 1.206.964 2.17 2.17 2.17zm11.332 0a2.17 2.17 0 1 0 0-4.34 2.17 2.17 0 0 0 0 4.34zm11.092 0a2.16 2.16 0 1 0 0-4.34 2.16 2.16 0 1 0 0 4.34zm11.331 0a2.16 2.16 0 1 0 0-4.34 2.16 2.16 0 1 0 0 4.34zM58.108 119.821a2.16 2.16 0 1 0 0-4.34 2.16 2.16 0 0 0-2.17 2.17c0 1.447.964 2.17 2.17 2.17zm11.09 0a2.16 2.16 0 1 0 0-4.34 2.16 2.16 0 0 0-2.17 2.17c.241 1.447.965 2.17 2.17 2.17zm11.333 0a2.16 2.16 0 1 0 0-4.34 2.16 2.16 0 0 0-2.17 2.17c0 1.447.965 2.17 2.17 2.17zm11.092 0a2.16 2.16 0 1 0 0-4.34 2.16 2.16 0 0 0-2.17 2.17c0 1.447.964 2.17 2.17 2.17zm11.331 0a2.16 2.16 0 1 0 0-4.34 2.16 2.16 0 0 0-2.17 2.17c0 1.447.965 2.17 2.17 2.17zm11.091 41a2.16 2.16 0 1 0 0-4.34 2.16 2.16 0 0 0-2.17 2.17c0 1.447.965 2.17 2.17 2.17zm11.092 0a2.16 2.16 0 1 0 0-4.34 2.16 2.16 0 0 0-2.17 2.17c.241 1.447 1.205 2.17 2.17 2.17zm11.332 0a2.16 2.16 0 1 0 0-4.34 2.16 2.16 0 0 0-2.17 2.17c0 1.447.965 2.17 2.17 2.17zm11.091 0a2.16 2.16 0 1 0 0-4.34 2.16 2.16 0 0 0-2.17 2.17c.241 1.447.964 2.17 2.17 2.17zm11.332 0a2.16 2.16 0 1 0 0-4.34 2.16 2.16 0 0 0-2.17 2.17c0 1.447.965 2.17 2.17 2.17zm11.092 0a2.16 2.16 0 1 0 0-4.34 2.16 2.16 0 0 0-2.17 2.17c0 1.447.964 2.17 2.17 2.17zm11.331 0a2.16 2.16 0 1 0 0-4.34 2.16 2.16 0 0 0-2.17 2.17c0 1.447.965 2.17 2.17 2.17zM46.776 131.153a2.16 2.16 0 1 0 0-4.34 2.16 2.16 0 0 0-2.17 2.17c.24 1.206 1.205 2.17 2.17 2.17zm11.332 0a2.16 2.16 0 1 0 0-4.34 2.16 2.16 0 1 0 0 4.34zm11.09 0a2.16 2.16 0 1 0 0-4.34 2.16 2.16 0 0 0-2.17 2.17c.241 1.206.965 2.17 2.17 2.17zm11.333 0a2.16 2.16 0 1 0 0-4.34 2.16 2.16 0 1 0 0 4.34zm11.092 0a2.16 2.16 0 1 0 0-4.34 2.16 2.16 0 1 0 0 4.34zm11.331 0a2.16 2.16 0 1 0 0-4.34 2.16 2.16 0 1 0 0 4.34zm11.091 41a2.16 2.16 0 1 0 0-4.34 2.16 2.16 0 1 0 0 4.34zm11.092 0a2.16 2.16 0 1 0 0-4.34 2.16 2.16 0 0 0-2.17 2.17c.241 1.206 1.205 2.17 2.17 2.17zm11.332 0a2.16 2.16 0 1 0 0-4.34 2.16 2.16 0 1 0 0 4.34zm11.091 0a2.16 2.16 0 1 0 0-4.34 2.16 2.16 0 0 0-2.17 2.17c.241 1.206.964 2.17 2.17 2.17zm11.332 0a2.16 2.16 0 1 0 0-4.34 2.16 2.16 0 1 0 0 4.34zm11.092 0a2.16 2.16 0 1 0 0-4.34 2.16 2.16 0 1 0 0 4.34zm11.331 0a2.16 2.16 0 1 0 0-4.34 2.16 2.16 0 1 0 0 4.34zM35.684 142.244a2.16 2.16 0 1 0 0-4.34 2.16 2.16 0 1 0 0 4.34zm11.092.242a2.17 2.17 0 1 0-.002-4.341 2.17 2.17 0 0 0 .002 4.341zm11.332-.242a2.16 2.16 0 1 0 0-4.34 2.16 2.16 0 1 0 0 4.34zm11.09 0a2.16 2.16 0 1 0 0-4.34 2.16 2.16 0 0 0-2.17 2.17c.241 1.206.965 2.17 2.17 2.17zm11.333.242a2.17 2.17 0 1 0 0-4.341 2.17 2.17 0 0 0 0 4.341zm11.092-.242a2.16 2.16 0 1 0 0-4.34 2.16 2.16 0 1 0 0 4.34zm11.331.242a2.17 2.17 0 1 0 0-4.34 2.17 2.17 0 0 0 0 4.34zm11.091 40.758a2.16 2.16 0 1 0 0-4.34 2.16 2.16 0 1 0 0 4.34zm11.092 0a2.16 2.16 0 1 0 0-4.34 2.16 2.16 0 0 0-2.17 2.17c.241 1.206 1.205 2.17 2.17 2.17zm11.332.242a2.17 2.17 0 1 0 0-4.34 2.17 2.17 0 0 0 0 4.34zm11.091-.242a2.16 2.16 0 1 0 0-4.34 2.16 2.16 0 0 0-2.17 2.17c.241 1.206.964 2.17 2.17 2.17zm11.332.242a2.17 2.17 0 1 0 0-4.34 2.17 2.17 0 0 0 0 4.34zm11.092-.242a2.16 2.16 0 1 0 0-4.34 2.16 2.16 0 1 0 0 4.34zm11.331 0a2.16 2.16 0 1 0 0-4.34 2.16 2.16 0 1 0 0 4.34zM24.593 153.577a2.16 2.16 0 1 0 0-4.34 2.16 2.16 0 1 0 0 4.34zm11.091 0a2.16 2.16 0 1 0 0-4.34 2.16 2.16 0 1 0 0 4.34zm11.092 0a2.16 2.16 0 1 0 0-4.34 2.16 2.16 0 0 0-2.17 2.17c.24 1.205 1.205 2.17 2.17 2.17zm11.332 0a2.16 2.16 0 1 0 0-4.34 2.16 2.16 0 1 0 0 4.34zm11.09 0a2.16 2.16 0 1 0 0-4.34 2.16 2.16 0 0 0-2.17 2.17c.241 1.205.965 2.17 2.17 2.17zm11.333 0a2.16 2.16 0 1 0 0-4.34 2.16 2.16 0 1 0 0 4.34zm11.092 0a2.16 2.16 0 1 0 0-4.34 2.16 2.16 0 1 0 0 4.34zm11.331 0a2.16 2.16 0 1 0 0-4.34 2.16 2.16 0 1 0 0 4.34zm11.091 41a2.16 2.16 0 1 0 0-4.34 2.16 2.16 0 1 0 0 4.34zm11.092 0a2.16 2.16 0 1 0 0-4.34 2.16 2.16 0 0 0-2.17 2.17c.241 1.205 1.205 2.17 2.17 2.17zm11.332 0a2.16 2.16 0 1 0 0-4.34 2.16 2.16 0 1 0 0 4.34zm11.091 0a2.16 2.16 0 1 0 0-4.34 2.16 2.16 0 0 0-2.17 2.17c.241 1.205.964 2.17 2.17 2.17zm11.332 0a2.16 2.16 0 1 0 0-4.34 2.16 2.16 0 1 0 0 4.34zm11.092 0a2.16 2.16 0 1 0 0-4.34 2.16 2.16 0 1 0 0 4.34zm11.331 0a2.16 2.16 0 1 0 0-4.34 2.16 2.16 0 1 0 0 4.34zM13.261 164.668a2.16 2.16 0 0 0 2.17-2.17c0-1.206-.964-1.929-2.17-1.929a2.16 2.16 0 0 0-2.17 2.17c0 1.205.965 1.929 2.17 1.929zm11.332 0a2.17 2.17 0 1 0 0-4.34 2.17 2.17 0 0 0 0 4.34zm11.091 0a2.16 2.16 0 1 0 0-4.34 2.16 2.16 0 1 0 0 4.34zm11.092 0a2.17 2.17 0 1 0-.001-4.34 2.17 2.17 0 0 0 0 4.34zm11.332 0a2.16 2.16 0 1 0 0-4.34 2.16 2.16 0 1 0 0 4.34zm11.09 0a2.16 2.16 0 1 0 0-4.34 2.16 2.16 0 1 0 0 4.34zm11.333 0a2.17 2.17 0 1 0 0-4.34 2.17 2.17 0 0 0 0 4.34zm11.092 0a2.16 2.16 0 1 0 0-4.34 2.16 2.16 0 1 0 0 4.34zm11.331 0a2.17 2.17 0 1 0 0-4.34 2.17 2.17 0 0 0 0 4.34zm11.091 41a2.16 2.16 0 1 0 0-4.34 2.16 2.16 0 1 0 0 4.34zm11.092 0a2.16 2.16 0 1 0 0-4.34 2.16 2.16 0 0 0-2.17 2.17c0 1.205 1.205 2.17 2.17 2.17zm11.332 0a2.17 2.17 0 1 0 0-4.34 2.17 2.17 0 0 0 0 4.34zm11.091 0a2.16 2.16 0 1 0 0-4.34 2.16 2.16 0 1 0 0 4.34zm11.332 0a2.17 2.17 0 1 0 0-4.34 2.17 2.17 0 0 0 0 4.34zm11.092 0a2.16 2.16 0 1 0 0-4.34 2.16 2.16 0 1 0 0 4.34zm11.331 0a2.16 2.16 0 1 0 0-4.34 2.16 2.16 0 1 0 0 4.34zM2.17 176a2.16 2.16 0 1 0 0-4.34 2.16 2.16 0 1 0 0 4.34zm11.091 0a2.16 2.16 0 1 0 0-4.34 2.16 2.16 0 1 0 0 4.34zm11.332 0a2.16 2.16 0 1 0 0-4.34 2.16 2.16 0 1 0 0 4.34zm11.091 0a2.16 2.16 0 1 0 0-4.34 2.16 2.16 0 1 0 0 4.34zm11.092 0a2.16 2.16 0 1 0 0-4.34 2.16 2.16 0 0 0-2.17 2.17c.24 1.205 1.205 2.17 2.17 2.17zm11.332 0a2.16 2.16 0 1 0 0-4.34 2.16 2.16 0 1 0 0 4.34zm11.09 0a2.16 2.16 0 1 0 0-4.34 2.16 2.16 0 0 0-2.17 2.17c.241 1.205.965 2.17 2.17 2.17zm11.333 0a2.16 2.16 0 1 0 0-4.34 2.16 2.16 0 1 0 0 4.34zm11.092 0a2.16 2.16 0 1 0 0-4.34 2.16 2.16 0 1 0 0 4.34zm11.331 0a2.16 2.16 0 1 0 0-4.34 2.16 2.16 0 1 0 0 4.34zm11.091 41a2.16 2.16 0 1 0 0-4.34 2.16 2.16 0 1 0 0 4.34zm11.092 0a2.16 2.16 0 1 0 0-4.34 2.16 2.16 0 0 0-2.17 2.17c.241 1.206 1.205 2.17 2.17 2.17zm11.332 0a2.16 2.16 0 1 0 0-4.34 2.16 2.16 0 1 0 0 4.34zm11.091 0a2.16 2.16 0 1 0 0-4.34 2.16 2.16 0 0 0-2.17 2.17c.241 1.206.964 2.17 2.17 2.17zm11.332 0a2.16 2.16 0 1 0 0-4.34 2.16 2.16 0 1 0 0 4.34zm11.092 0a2.16 2.16 0 1 0 0-4.34 2.16 2.16 0 1 0 0 4.34zm11.331 0a2.16 2.16 0 1 0 0-4.34 2.16 2.16 0 1 0 0 4.34z" fill="#000"/></svg>