<svg width="185" height="284" viewBox="0 0 185 284" fill="none" xmlns="http://www.w3.org/2000/svg">
<path d="M185 0V98.694L178.024 105.827L158.551 125.187L150.412 133.339L130.939 152.845L122.946 160.996L103.472 180.357L95.3338 188.508L89.6661 194.186L81.5279 202.337L62.1995 221.843L54.0613 229.995L34.5876 249.355L26.4493 257.507L6.97565 277.013L0 284V185.306L6.97565 178.319L26.4493 158.813L34.5876 150.661L54.0613 131.301L62.1995 123.149L81.5279 103.643L89.6661 95.4915L95.3338 89.8145L103.472 81.6627L122.946 62.3024L130.939 54.1507L150.412 34.6448L158.551 26.4931L178.024 7.13275L185 0Z" fill="white"/>
</svg>
