<svg width="43" height="43" viewBox="0 0 43 43" fill="none" xmlns="http://www.w3.org/2000/svg">
<path fill-rule="evenodd" clip-rule="evenodd" d="M42.1246 10.3286V41.266C42.1246 41.7407 41.7398 42.1254 41.2652 42.1254H1.73397C1.25936 42.1254 0.874573 41.7407 0.874573 41.266V10.3286H42.1246H42.1246ZM6.86774 32.6723L12.15 18.9224H14.1092L19.7372 32.6723H17.6628L16.0588 28.5073H10.3092L8.80136 32.6723H6.86773H6.86774ZM10.8342 27.0251H15.4986L14.0612 23.2186C13.6258 22.0629 13.2993 21.1121 13.088 20.3662C12.9119 21.2498 12.6654 22.1237 12.3453 22.9945L10.8342 27.0251H10.8342ZM21.1906 32.6723V18.9224H26.3769C27.2892 18.9224 27.9871 18.9672 28.4673 19.0536C29.1428 19.1657 29.7095 19.3802 30.1673 19.6971C30.6218 20.0108 30.99 20.4558 31.2685 21.0225C31.5471 21.5923 31.6847 22.2166 31.6847 22.8985C31.6847 24.067 31.3134 25.0594 30.5706 25.8693C29.8247 26.6761 28.4801 27.0826 26.5369 27.0826H23.009V32.6722H21.1906L21.1906 32.6723ZM23.009 25.4596H26.5658C27.7406 25.4596 28.5762 25.2419 29.0692 24.8033C29.5622 24.3647 29.8087 23.75 29.8087 22.9561C29.8087 22.3799 29.6647 21.8868 29.3733 21.4771C29.082 21.0673 28.701 20.7984 28.2241 20.6671C27.9167 20.5871 27.3533 20.5455 26.5273 20.5455H23.009V25.4596ZM34.3131 32.6723V18.9224H36.1315V32.6723H34.3131Z" fill="#509AA6"/>
<path d="M29.2251 3.40968V6.84714H32.6626V3.40968H29.2251ZM23.2141 6.84714H26.6516V3.40968H23.2141V6.84714ZM35.2536 3.40968V6.84714H38.691V3.40968H35.2536ZM1.73398 0.875426H41.2652C41.7398 0.875426 42.1246 1.26021 42.1246 1.73482V9.4692H0.874573V1.73482C0.874573 1.26021 1.25936 0.875426 1.73397 0.875426H1.73398Z" fill="#B4EDF6"/>
</svg>
