<svg width="15" height="12" viewBox="0 0 15 12" fill="none" xmlns="http://www.w3.org/2000/svg">
<path d="M13.3929 0H1.60714C0.719541 0 0 0.575633 0 1.28571V10.7143C0 11.4244 0.719541 12 1.60714 12H13.3929C14.2805 12 15 11.4244 15 10.7143V1.28571C15 0.575633 14.2805 0 13.3929 0ZM13.9286 10.7143C13.9286 10.951 13.6887 11.1429 13.3928 11.1429H1.60714C1.31126 11.1429 1.07142 10.951 1.07142 10.7143V1.28571C1.07142 1.04901 1.31126 0.857134 1.60714 0.857134H13.3929C13.6887 0.857134 13.9286 1.04901 13.9286 1.28571V10.7143H13.9286Z" fill="#8F8DDC" fill-opacity="0.9"/>
<path d="M4.82145 2.57153H3.21431C2.91844 2.57153 2.67859 2.76341 2.67859 3.00011C2.67859 3.23682 2.91844 3.42869 3.21431 3.42869H4.82145C5.11733 3.42869 5.35718 3.23682 5.35718 3.00011C5.35718 2.76341 5.11733 2.57153 4.82145 2.57153Z" fill="#8F8DDC" fill-opacity="0.9"/>
<path d="M11.7857 2.57153H6.96431C6.66844 2.57153 6.42859 2.76341 6.42859 3.00011C6.42859 3.23682 6.66844 3.42869 6.96431 3.42869H11.7857C12.0816 3.42869 12.3215 3.23682 12.3215 3.00011C12.3215 2.76341 12.0816 2.57153 11.7857 2.57153Z" fill="#8F8DDC" fill-opacity="0.9"/>
<path d="M4.82145 5.57129H3.21431C2.91844 5.57129 2.67859 5.76317 2.67859 5.99987C2.67859 6.23657 2.91844 6.42842 3.21431 6.42842H4.82145C5.11733 6.42842 5.35718 6.23654 5.35718 5.99984C5.35718 5.76314 5.11733 5.57129 4.82145 5.57129Z" fill="#8F8DDC" fill-opacity="0.9"/>
<path d="M11.7857 5.57129H6.96431C6.66844 5.57129 6.42859 5.76317 6.42859 5.99987C6.42859 6.23657 6.66844 6.42842 6.96431 6.42842H11.7857C12.0816 6.42842 12.3215 6.23654 12.3215 5.99984C12.3215 5.76314 12.0816 5.57129 11.7857 5.57129Z" fill="#8F8DDC" fill-opacity="0.9"/>
<path d="M4.82145 8.57129H3.21431C2.91844 8.57129 2.67859 8.76317 2.67859 8.99987C2.67859 9.23657 2.91844 9.42845 3.21431 9.42845H4.82145C5.11733 9.42845 5.35718 9.23657 5.35718 8.99987C5.35718 8.76317 5.11733 8.57129 4.82145 8.57129Z" fill="#8F8DDC" fill-opacity="0.9"/>
<path d="M11.7857 8.57129H6.96431C6.66844 8.57129 6.42859 8.76317 6.42859 8.99987C6.42859 9.23657 6.66844 9.42845 6.96431 9.42845H11.7857C12.0816 9.42845 12.3215 9.23657 12.3215 8.99987C12.3215 8.76317 12.0816 8.57129 11.7857 8.57129Z" fill="#8F8DDC" fill-opacity="0.9"/>
</svg>
