<svg xmlns="http://www.w3.org/2000/svg" viewBox="0 0 81.95 81.7">
    <path d="M31.12 0H6.62A6.49 6.49 0 000 6.46v24c0 3.65 3 7 6.62 7h24.5c3.65 0 6.62-3.36 6.62-7v-24A6.48 6.48 0 0031.12 0zm0 30.8H6.62V6.46h24.5zm0 13.46H6.62A6.65 6.65 0 000 50.9v24.16a6.65 6.65 0 006.62 6.64h24.5a6.64 6.64 0 006.62-6.64V50.9a6.64 6.64 0 00-6.62-6.64zm0 30.81H6.62V50.73h24.5zM75.31 0H51a6.66 6.66 0 00-6.8 6.46v24.35a6.81 6.81 0 006.8 6.64h24.3a6.65 6.65 0 006.63-6.64V6.46A6.5 6.5 0 0075.31 0zm0 30.8H51V6.46h24.3V30.8zm-.73 13.46H50.82a6.65 6.65 0 00-6.62 6.64v24.16a6.65 6.65 0 006.62 6.64h24.5A6.65 6.65 0 0082 75.06V50.9c-.06-3.64-3.78-6.64-7.42-6.64zm.73 30.81H51V50.9h24.3v24.17z" />
</svg>
