<svg xmlns="http://www.w3.org/2000/svg" viewBox="0 0 18 18">
    <path d="M9 0C4.032 0 0 4.032 0 9s4.032 9 9 9 9-4.032 9-9-4.032-9-9-9zm3.249 5.706c.963 0 1.737.774 1.737 1.737 0 .963-.774 1.737-1.737 1.737a1.732 1.732 0 01-1.737-1.737 1.727 1.727 0 011.737-1.737zm-5.4-1.422c1.17 0 2.124.954 2.124 2.124 0 1.17-.954 2.124-2.124 2.124a2.128 2.128 0 01-2.124-2.124c0-1.179.945-2.124 2.124-2.124zm0 8.217v3.375a7.206 7.206 0 01-4.626-4.464c.945-1.008 3.303-1.521 4.626-1.521.477 0 1.08.072 1.71.198-1.476.783-1.71 1.818-1.71 2.412zM9 16.2c-.243 0-.477-.009-.711-.036v-3.663c0-1.278 2.646-1.917 3.96-1.917.963 0 2.628.351 3.456 1.035C14.652 14.292 12.051 16.2 9 16.2z"/>
</svg>
