<svg xmlns="http://www.w3.org/2000/svg" viewBox="0 0 14 14">
   <path d="M4.53906 9.05077h7.41024c.1835 0 .3445-.12134.3942-.29758l1.6407-5.74229c.0352-.1238.0111-.25678-.0666-.35964-.0777-.10254-.1986-.1631-.3276-.1631H3.59218l-.2932-1.31934C3.25732.98094 3.0907.84753 2.89844.84753H.41016C.1835.84753 0 1.03104 0 1.2577c0 .22676.1835.41016.41016.41016h2.15908L4.0504 8.33289c-.43579.18948-.74181.62324-.74181 1.12803 0 .67848.55201 1.23048 1.23047 1.23048h7.41024c.2268 0 .4102-.1834.4102-.4102 0-.2266-.1834-.41012-.4102-.41012H4.53906c-.2259 0-.41015-.18382-.41015-.41016 0-.22633.18425-.41015.41015-.41015zM4.12891 11.922c0 .6786.552 1.2305 1.23057 1.2305.67847 0 1.23047-.5519 1.23047-1.2305 0-.6785-.552-1.2305-1.23047-1.2305-.67857 0-1.23057.552-1.23057 1.2305zM9.89856 11.922c0 .6786.55204 1.2305 1.23044 1.2305.6786 0 1.2305-.5519 1.2305-1.2305 0-.6785-.5519-1.2305-1.2305-1.2305-.6784 0-1.23044.552-1.23044 1.2305z"/>
</svg>
