<svg width="43" height="43" viewBox="0 0 43 43" fill="none" xmlns="http://www.w3.org/2000/svg">
<path d="M29.2251 3.4097V6.84716H32.6626V3.4097H29.2251ZM23.2141 6.84716H26.6516V3.4097H23.2141V6.84716ZM35.2536 3.4097V6.84716H38.691V3.4097H35.2536ZM1.73397 0.875443H41.2652C41.7398 0.875443 42.1246 1.26023 42.1246 1.73484V9.46922H0.874557V1.73484C0.874557 1.26022 1.25934 0.875443 1.73395 0.875443H1.73397Z" fill="#99E4F0"/>
<path fill-rule="evenodd" clip-rule="evenodd" d="M42.1246 10.3286V41.2661C42.1246 41.7407 41.7398 42.1255 41.2652 42.1255H1.73395C1.25934 42.1255 0.874557 41.7407 0.874557 41.2661V10.3286H42.1246H42.1246ZM11.2443 15.9108H10.8001C9.74724 15.9108 9.03578 16.1123 8.66565 16.5112C8.29552 16.9102 8.11044 17.7327 8.11044 18.9829V21.907C8.11044 23.2559 7.9377 24.2183 7.58815 24.794C7.23858 25.3739 6.62167 25.7893 5.73747 26.0484C6.62167 26.2951 7.23858 26.7064 7.58815 27.2863C7.9377 27.862 8.11044 28.8244 8.11044 30.1774V33.0851C8.11044 34.3312 8.2914 35.1537 8.65331 35.5526C9.01523 35.9474 9.69791 36.1489 10.7014 36.1489C10.759 36.1489 10.8453 36.1448 10.9687 36.1366C11.088 36.1284 11.1785 36.1243 11.2443 36.1243V37.4033H10.6767C9.09748 37.4033 8.02407 37.1113 7.4689 36.5314C6.9096 35.9515 6.62993 34.7589 6.62993 32.9658V30.0212C6.62993 28.7833 6.39961 27.9114 5.94311 27.4055C5.59233 27.0168 5.04724 26.7763 4.31164 26.6857V25.374C5.04724 25.2834 5.59233 25.0429 5.94311 24.6542C6.39961 24.1442 6.62993 23.2683 6.62993 22.0304V19.1022C6.62993 17.3132 6.90959 16.1164 7.47302 15.5242C8.03645 14.9279 9.10158 14.6318 10.6767 14.6318H11.2443V15.9108L11.2443 15.9108ZM12.0465 20.8613H31.8121V22.5801H12.0465V20.8613ZM12.0465 25.1581H31.8121V26.8769H12.0465V25.1581ZM31.7549 15.9108H32.199C33.2519 15.9108 33.9634 16.1123 34.3335 16.5112C34.7036 16.9101 34.8887 17.7327 34.8887 18.9829V21.907C34.8887 23.2559 35.0614 24.2183 35.411 24.794C35.7606 25.3739 36.3775 25.7893 37.2617 26.0484C36.3775 26.2951 35.7606 26.7064 35.411 27.2863C35.0614 27.862 34.8887 28.8244 34.8887 30.1774V33.085C34.8887 34.3312 34.7077 35.1537 34.3458 35.5526C33.9839 35.9474 33.3012 36.1489 32.2977 36.1489C32.2402 36.1489 32.1538 36.1448 32.0304 36.1366C31.9112 36.1284 31.8207 36.1243 31.7549 36.1243V37.4033H32.3224C33.9017 37.4033 34.9751 37.1113 35.5302 36.5314C36.0895 35.9515 36.3692 34.7589 36.3692 32.9657V30.0211C36.3692 28.7832 36.5995 27.9114 37.056 27.4055C37.4068 27.0168 37.9519 26.7763 38.6875 26.6857V25.374C37.9519 25.2834 37.4068 25.0429 37.056 24.6542C36.5995 24.1442 36.3692 23.2682 36.3692 22.0303V19.1022C36.3692 17.3132 36.0895 16.1164 35.5261 15.5242C34.9627 14.9279 33.8976 14.6318 32.3224 14.6318H31.7549V15.9108L31.7549 15.9108ZM12.0465 29.4551H25.7965V31.1739H12.0465V29.4551Z" fill="#509AA6"/>
</svg>
