<svg width="27" height="27" viewBox="0 0 27 27" fill="none" xmlns="http://www.w3.org/2000/svg">
<path d="M22.5416 0.583496H4.45831C3.4306 0.583496 2.44498 0.991754 1.71827 1.71846C0.991571 2.44516 0.583313 3.43078 0.583313 4.4585V22.5418C0.583313 23.5695 0.991571 24.5552 1.71827 25.2819C2.44498 26.0086 3.4306 26.4168 4.45831 26.4168H22.5416C23.5694 26.4168 24.555 26.0086 25.2817 25.2819C26.0084 24.5552 26.4166 23.5695 26.4166 22.5418V4.4585C26.4166 3.43078 26.0084 2.44516 25.2817 1.71846C24.555 0.991754 23.5694 0.583496 22.5416 0.583496ZM23.8333 22.5418C23.8333 22.8844 23.6972 23.2129 23.455 23.4552C23.2128 23.6974 22.8842 23.8335 22.5416 23.8335H4.45831C4.11574 23.8335 3.7872 23.6974 3.54497 23.4552C3.30273 23.2129 3.16665 22.8844 3.16665 22.5418V4.4585C3.16665 4.11593 3.30273 3.78738 3.54497 3.54515C3.7872 3.30292 4.11574 3.16683 4.45831 3.16683H22.5416C22.8842 3.16683 23.2128 3.30292 23.455 3.54515C23.6972 3.78738 23.8333 4.11593 23.8333 4.4585V22.5418ZM20.8237 7.4035C21.0643 7.64551 21.1993 7.97288 21.1993 8.31412C21.1993 8.65536 21.0643 8.98274 20.8237 9.22475L11.1879 19.4806C11.0663 19.6081 10.92 19.7094 10.7578 19.7783C10.5957 19.8471 10.4211 19.8821 10.245 19.881C10.0688 19.8821 9.89428 19.8471 9.73213 19.7783C9.56997 19.7094 9.42362 19.6081 9.30206 19.4806L6.1504 16.0835C6.0196 15.9636 5.91491 15.818 5.84285 15.6559C5.77079 15.4938 5.73291 15.3185 5.73157 15.1411C5.73023 14.9637 5.76546 14.7879 5.83506 14.6246C5.90466 14.4614 6.00714 14.3143 6.13612 14.1924C6.26509 14.0706 6.41778 13.9766 6.58468 13.9164C6.75157 13.8561 6.92909 13.8309 7.10616 13.8423C7.28323 13.8537 7.45605 13.9015 7.61384 13.9826C7.77164 14.0638 7.91103 14.1765 8.02331 14.3139L10.2966 16.7293L18.9896 7.481C19.1044 7.35472 19.2432 7.25247 19.3978 7.18016C19.5525 7.10784 19.7199 7.0669 19.8905 7.05969C20.061 7.05248 20.2313 7.07916 20.3915 7.13817C20.5517 7.19718 20.6986 7.28736 20.8237 7.4035Z" fill="#4BB7D4"/>
</svg>
