<svg width="43" height="33" viewBox="0 0 43 33" fill="none" xmlns="http://www.w3.org/2000/svg">
<path fill-rule="evenodd" clip-rule="evenodd" d="M42.1242 13.6352V31.6821C42.1242 32.0776 41.8035 32.3983 41.408 32.3983H8.46532C8.06981 32.3983 7.74913 32.0776 7.74913 31.6821V13.6352H42.1242H42.1242ZM30.1396 26.6513V25.5961H37.8273V26.6513H30.1396ZM28.0245 23.2746L21.7665 26.6513V25.1935L26.7223 22.5998L21.7665 20.0284V18.5734L28.0245 21.9084V23.2746V23.2746ZM12.0461 23.2746V21.9084L18.304 18.5734V20.0284L13.3416 22.5998L18.304 25.1935V26.6513L12.0461 23.2746V23.2746Z" fill="#509AA6"/>
<path d="M31.3746 7.86936V10.7339H34.2391V7.86936H31.3746ZM26.3654 10.7339H29.23V7.86936H26.3654V10.7339ZM36.3983 7.86936V10.7339H39.2629V7.86936H36.3983ZM8.46534 5.75751H41.408C41.8035 5.75751 42.1242 6.07816 42.1242 6.47366V12.919H7.74914V6.47366C7.74914 6.07816 8.06982 5.75751 8.46532 5.75751H8.46534Z" fill="#B4EDF6"/>
<path d="M6.89017 6.47352C6.89017 5.60372 7.59589 4.89803 8.46569 4.89803H35.2495V1.46054C35.2495 0.985932 34.8647 0.601151 34.3901 0.601151H1.73397C1.25936 0.601151 0.874573 0.985934 0.874573 1.46054V26.3076C0.874573 26.7823 1.25936 27.167 1.73397 27.167H6.89016C6.89016 20.2692 6.89016 13.3714 6.89016 6.47355L6.89017 6.47352Z" fill="#509AA6"/>
</svg>
