<svg fill="none" viewBox="0 0 75 75">
    <g clipPath="url(#deal__clip0)">
        <path
                fill="currentColor"
                d="M37.5 24.39c6.724 0 12.194-5.47 12.194-12.195 0-4.962-2.965-9.39-7.553-11.28a1.099 1.099 0 00-.836 2.032 9.968 9.968 0 016.192 9.248c0 5.512-4.485 9.997-9.997 9.997s-9.997-4.485-9.997-9.997 4.485-9.997 9.997-9.997a1.099 1.099 0 000-2.197c-6.724 0-12.194 5.47-12.194 12.194 0 6.724 5.47 12.194 12.194 12.194zm-3.902-11.787a1.098 1.098 0 10-1.554 1.554l2.21 2.21c.415.414.959.621 1.503.621.543 0 1.087-.207 1.502-.62l5.697-5.698a1.098 1.098 0 10-1.554-1.554l-5.645 5.646-2.16-2.159zm41.08 21.838a1.099 1.099 0 00-1.553 0l-4.152 4.147L51.96 21.234 71.343 1.877A1.099 1.099 0 1069.79.323l-23.802 23.77a5.435 5.435 0 00-1.598 4.22h-1.468c-2.214 0-4.33.946-5.807 2.595l-.212.237a15.824 15.824 0 00-6.514-1.663 5.508 5.508 0 00-1.446-5.394L4.905.408a1.098 1.098 0 10-1.542 1.566l20.527 20.22L9.09 37.29a1.099 1.099 0 101.57 1.538l14.794-15.09 1.949 1.919c.633.62.984 1.448.989 2.334a3.266 3.266 0 01-.965 2.344L14.927 42.822a3.302 3.302 0 01-4.662 0l-8.39-8.382a1.099 1.099 0 00-1.553 1.555l8.39 8.382a5.478 5.478 0 003.884 1.604c.51 0 1.018-.071 1.512-.212.027.746.108 1.488.24 2.224a4.737 4.737 0 00-1.373.956l-2.412 2.41a4.723 4.723 0 00-1.395 3.364c0 1.27.495 2.465 1.395 3.364a4.745 4.745 0 003.805 1.37 4.747 4.747 0 001.374 3.804 4.747 4.747 0 003.805 1.37 4.752 4.752 0 005.179 5.174 4.746 4.746 0 001.374 3.803 4.747 4.747 0 003.366 1.39 4.748 4.748 0 003.366-1.39l1.587-1.585 1.586 1.585a4.748 4.748 0 003.366 1.39 4.748 4.748 0 003.366-1.39 4.767 4.767 0 001.374-3.803 4.727 4.727 0 003.805-1.37 4.766 4.766 0 001.374-3.804 4.727 4.727 0 003.805-1.37 4.766 4.766 0 001.374-3.804 4.728 4.728 0 003.805-1.37 4.723 4.723 0 001.395-3.365 4.724 4.724 0 00-1.395-3.364l-1.33-1.329a16.233 16.233 0 003.902-4.272 5.53 5.53 0 001.558.224 5.478 5.478 0 003.884-1.605l8.39-8.381c.43-.429.43-1.124 0-1.554zM15.743 56.532c-1 1-2.626 1-3.626 0a2.542 2.542 0 01-.75-1.81c0-.683.266-1.325.75-1.809l2.412-2.41c.5-.498 1.156-.748 1.813-.748a2.557 2.557 0 012.563 2.559c0 .683-.266 1.326-.75 1.81l-2.412 2.408zm1.553 5.174a2.541 2.541 0 01-.75-1.81c0-.683.266-1.326.75-1.809l2.412-2.41a2.57 2.57 0 013.626 0c.484.484.75 1.127.75 1.81 0 .684-.266 1.326-.75 1.81l-2.412 2.41a2.57 2.57 0 01-3.626 0zm5.179 5.174a2.542 2.542 0 01-.75-1.81c0-.683.266-1.326.75-1.81l2.412-2.409c.5-.5 1.156-.749 1.813-.749a2.558 2.558 0 012.563 2.559c0 .683-.266 1.326-.75 1.81L26.1 66.88c-1 .999-2.626.999-3.626 0zm11.217 2.765l-2.412 2.409a2.57 2.57 0 01-3.626 0 2.542 2.542 0 01-.75-1.81c0-.683.266-1.326.75-1.81l2.412-2.409c.5-.5 1.156-.749 1.813-.749a2.557 2.557 0 012.563 2.559c0 .683-.266 1.326-.75 1.81zm23.781-14.922c0 .683-.267 1.326-.75 1.81-1 .998-2.627.998-3.626 0l-7.872-7.865a1.099 1.099 0 00-1.553 1.555l7.872 7.864c.483.483.75 1.126.75 1.81 0 .683-.266 1.326-.75 1.81a2.57 2.57 0 01-3.626 0l-7.872-7.865a1.099 1.099 0 10-1.553 1.554l7.872 7.864c.484.484.75 1.127.75 1.81a2.54 2.54 0 01-.75 1.81c-1 .998-2.627.998-3.626 0l-7.872-7.864a1.099 1.099 0 00-1.553 1.554l7.872 7.864c.484.484.75 1.126.75 1.81 0 .683-.266 1.326-.75 1.81a2.57 2.57 0 01-3.626 0l-1.665-1.664a4.719 4.719 0 00.745-2.555c0-1.271-.495-2.466-1.395-3.364a4.754 4.754 0 00-3.805-1.37 4.724 4.724 0 00-1.374-3.803 4.755 4.755 0 00-3.805-1.371 4.723 4.723 0 00-1.374-3.804 4.754 4.754 0 00-3.805-1.37 4.724 4.724 0 00-1.374-3.804 4.744 4.744 0 00-3.203-1.387 13.59 13.59 0 01-.193-3.025c.058-.053.114-.105.17-.16l12.5-12.49a5.61 5.61 0 00.193-.2c2.13-.105 4.26.3 6.2 1.165l-6.947 7.757a3.41 3.41 0 00.13 4.686 6.244 6.244 0 008.816 0l5.085-5.08a1.1 1.1 0 011.553 0L54.467 50.66l2.255 2.253c.483.484.75 1.126.75 1.81zm.354-8.545a14.053 14.053 0 01-2.451 2.284l-9.812-9.802a3.3 3.3 0 00-4.658 0l-5.086 5.08a4.045 4.045 0 01-5.709 0 1.212 1.212 0 01-.046-1.665l8.688-9.701a5.604 5.604 0 014.17-1.863h2.076c.256.49.587.944.99 1.346l12.532 12.52c.122.121.248.235.379.343-.328.508-.684.998-1.073 1.458zm6.909-3.356a3.302 3.302 0 01-4.662 0l-12.532-12.52a3.267 3.267 0 01-.965-2.327c0-.88.343-1.706.965-2.328l2.865-2.86L67.419 40.14l-2.684 2.681z"
        />
    </g>
    <defs>
        <clipPath id="deal__clip0">
            <path fill="currentColor" d="M0 0h75v75H0z"/>
        </clipPath>
    </defs>
</svg>
