<svg width="33" height="43" viewBox="0 0 33 43" fill="none" xmlns="http://www.w3.org/2000/svg">
<path fill-rule="evenodd" clip-rule="evenodd" d="M26.2306 6.20419V6.36656C23.0823 6.56484 19.5219 6.50289 16.8598 5.18163C14.3326 3.9273 14.1615 2.27382 14.8289 0.0757131C15.3763 0.0296887 15.9322 0.0103083 16.4888 0.0172865C17.8313 0.0340659 19.1744 0.205159 20.4042 0.524063C23.7243 1.38498 26.2903 3.30544 26.2253 6.20419H26.2306L26.2306 6.20419ZM26.2306 7.61648V10.2007C26.2306 10.463 26.2191 15.016 26.1967 15.2655C25.8857 18.7354 23.4647 20.9888 20.4234 22.0202C19.1767 22.443 17.8338 22.6545 16.4995 22.6545C15.1652 22.6545 13.8224 22.443 12.5756 22.0202C9.58495 21.006 7.19444 18.8099 6.8199 15.4377C6.78742 15.1449 6.77 10.546 6.7688 10.2352C7.78495 10.0862 8.83323 9.85167 9.80781 9.60978C10.5469 9.42628 11.2865 9.22299 12.005 8.98818C12.4922 8.82895 13.0702 8.63029 13.5085 8.38891C14.3162 7.94399 15.0586 7.37542 15.5705 6.67998L15.9346 6.1852L16.5458 6.45592C19.4333 7.73483 22.9599 7.81787 26.2306 7.61649L26.2306 7.61648ZM13.2966 0.280429C13.1268 1.37376 12.9142 2.7535 13.3228 3.79341C13.5245 4.30675 13.8647 4.73299 14.3124 5.11701L14.6919 5.44264L14.4404 5.84712C14.0548 6.4671 13.3947 6.96544 12.7079 7.34363C12.2754 7.58187 11.7067 7.76892 11.2223 7.91911C10.5727 8.12049 9.90635 8.29523 9.24054 8.45462C8.44636 8.64481 7.59854 8.8329 6.76845 8.96546V6.20418C6.76845 3.11328 9.29953 1.23015 12.5724 0.435246C12.8096 0.377644 13.0513 0.326101 13.2966 0.280425L13.2966 0.280429ZM21.9952 11.1169H18.1534C18.1146 11.1169 18.0789 11.1332 18.0528 11.1592L18.0529 11.1593C18.0489 11.1632 18.0449 11.167 18.0409 11.1707C18.0219 11.1947 18.0106 11.2256 18.0106 11.2598V12.4778C18.0106 12.8515 18.1638 13.1917 18.4106 13.4385C18.6574 13.6853 18.9976 13.8386 19.3714 13.8386H21.5667C21.8291 13.8386 22.0681 13.7309 22.2416 13.5574C22.415 13.3839 22.5228 13.145 22.5228 12.8825V11.6445C22.5228 11.4999 22.4633 11.368 22.3675 11.2722C22.2717 11.1764 22.1398 11.1169 21.9952 11.1169H21.9952ZM11.0052 10.2575H14.8471C15.1231 10.2575 15.3738 10.3702 15.5552 10.5516L15.5553 10.5516C15.5658 10.5621 15.5756 10.573 15.5848 10.5843C15.7489 10.7635 15.8493 11.0009 15.8493 11.2598V12.4778C15.8493 13.0887 15.5996 13.6439 15.1975 14.0461C14.7953 14.4483 14.2401 14.698 13.6291 14.698H11.4338C10.9342 14.698 10.4801 14.4938 10.1513 14.165C9.82247 13.8362 9.61833 13.3822 9.61833 12.8825V11.6445C9.61833 11.2626 9.77426 10.9157 10.0254 10.6646C10.2765 10.4135 10.6234 10.2575 11.0052 10.2575L11.0052 10.2575ZM14.8471 11.1169H11.0052C10.8606 11.1169 10.7288 11.1764 10.633 11.2722C10.5372 11.368 10.4777 11.4999 10.4777 11.6445V12.8825C10.4777 13.145 10.5854 13.3839 10.7589 13.5574C10.9324 13.7309 11.1714 13.8386 11.4338 13.8386H13.6291C14.0029 13.8386 14.343 13.6853 14.5898 13.4385C14.8367 13.1917 14.9899 12.8515 14.9899 12.4778V11.2598C14.9899 11.2256 14.9785 11.1947 14.9596 11.1707C14.9555 11.167 14.9515 11.1632 14.9476 11.1593L14.9476 11.1592C14.9216 11.1331 14.8859 11.1169 14.8471 11.1169L14.8471 11.1169ZM18.1534 10.2575H21.9952C22.3771 10.2575 22.724 10.4135 22.9751 10.6646C23.2262 10.9157 23.3822 11.2626 23.3822 11.6445V12.8825C23.3822 13.3822 23.178 13.8362 22.8492 14.165C22.5203 14.4938 22.0663 14.698 21.5666 14.698H19.3714C18.7604 14.698 18.2052 14.4483 17.803 14.0461C17.4009 13.6439 17.1512 13.0887 17.1512 12.4778V11.2598C17.1512 11.0009 17.2516 10.7635 17.4156 10.5843C17.4248 10.573 17.4347 10.5621 17.4452 10.5516L17.4452 10.5516C17.6267 10.3702 17.8773 10.2575 18.1534 10.2575H18.1534Z" fill="#509AA6"/>
<path fill-rule="evenodd" clip-rule="evenodd" d="M23.6047 22.8357C26.282 24.1346 28.5599 25.7275 30.1874 27.8046C31.8524 29.9296 32.8204 32.5301 32.8204 35.794V39.8034C32.8204 40.2413 32.4928 40.6027 32.0694 40.656C27.0119 41.6213 21.8864 42.1161 16.6903 42.1221C11.4811 42.1281 6.21239 41.6422 0.882115 40.646L0.881734 40.6481C0.46466 40.5702 0.174715 40.2032 0.180203 39.7929V35.794C0.180203 32.5303 1.14805 29.93 2.81289 27.8051C4.45172 25.7133 6.75025 24.1125 9.45214 22.8084C9.73672 22.6073 10.25 22.8237 10.3469 22.8977C12.1573 24.0555 14.3268 24.6346 16.4999 24.6345C18.6951 24.6344 20.8867 24.0434 22.7081 22.8616L22.7069 22.859C22.9872 22.6771 23.3339 22.6795 23.6047 22.8357L23.6047 22.8357ZM12.1066 28.9318H11.9163C11.4652 28.9318 11.1604 29.0181 11.0018 29.1891C10.8432 29.36 10.7639 29.7124 10.7639 30.248V31.5008C10.7639 32.0787 10.6899 32.491 10.5402 32.7377C10.3904 32.9862 10.1261 33.1641 9.74726 33.2751C10.1261 33.3808 10.3904 33.557 10.5402 33.8055C10.6899 34.0521 10.7639 34.4645 10.7639 35.0442V36.2899C10.7639 36.8238 10.8415 37.1762 10.9965 37.3471C11.1516 37.5162 11.444 37.6025 11.874 37.6025C11.8986 37.6025 11.9357 37.6008 11.9885 37.5973C12.0396 37.5937 12.0784 37.592 12.1066 37.592V38.14H11.8634C11.1868 38.14 10.7269 38.0149 10.4891 37.7664C10.2494 37.518 10.1296 37.007 10.1296 36.2388V34.9772C10.1296 34.4468 10.0309 34.0733 9.83537 33.8566C9.68509 33.69 9.45154 33.587 9.13638 33.5482V32.9862C9.45154 32.9474 9.68509 32.8443 9.83537 32.6778C10.0309 32.4593 10.1296 32.084 10.1296 31.5536V30.2991C10.1296 29.5326 10.2494 29.0199 10.4908 28.7662C10.7322 28.5107 11.1886 28.3838 11.8634 28.3838H12.1066V28.9318H12.1066ZM12.4503 34.6731H18.3413V35.5325H12.4503V34.6731ZM12.4503 32.8322H20.9186V33.6916H12.4503V32.8322ZM12.4503 30.9912H20.9186V31.8506H12.4503V30.9912ZM20.8941 28.9318H21.0844C21.5355 28.9318 21.8403 29.0181 21.9989 29.1891C22.1575 29.36 22.2368 29.7124 22.2368 30.248V31.5008C22.2368 32.0787 22.3108 32.491 22.4605 32.7377C22.6103 32.9862 22.8746 33.1641 23.2534 33.2751C22.8746 33.3808 22.6103 33.557 22.4605 33.8055C22.3108 34.0521 22.2368 34.4645 22.2368 35.0442V36.2899C22.2368 36.8238 22.1592 37.1762 22.0042 37.3471C21.8491 37.5162 21.5566 37.6025 21.1267 37.6025C21.102 37.6025 21.065 37.6008 21.0122 37.5973C20.9611 37.5937 20.9223 37.592 20.8941 37.592V38.14H21.1373C21.8139 38.14 22.2737 38.0149 22.5116 37.7664C22.7512 37.518 22.8711 37.007 22.8711 36.2388V34.9772C22.8711 34.4468 22.9697 34.0733 23.1653 33.8566C23.3156 33.69 23.5491 33.587 23.8643 33.5482V32.9862C23.5491 32.9474 23.3156 32.8443 23.1653 32.6778C22.9697 32.4593 22.8711 32.084 22.8711 31.5536V30.2991C22.8711 29.5326 22.7512 29.0199 22.5099 28.7662C22.2684 28.5107 21.8121 28.3838 21.1373 28.3838H20.8941V28.9318H20.8941Z" fill="#B4EDF6"/>
<path fill-rule="evenodd" clip-rule="evenodd" d="M14.9903 12.4773V11.2593C14.9903 11.2251 14.9789 11.1942 14.96 11.1703L14.948 11.1588C14.9219 11.1327 14.8863 11.1165 14.8474 11.1165H11.0056C10.861 11.1165 10.7292 11.1759 10.6334 11.2718C10.5376 11.3676 10.4781 11.4994 10.4781 11.644V12.882C10.4781 13.1445 10.5858 13.3835 10.7593 13.5569C10.9327 13.7304 11.1717 13.8381 11.4342 13.8381H13.6295C14.0032 13.8381 14.3434 13.6849 14.5902 13.4381C14.837 13.1912 14.9903 12.8511 14.9903 12.4773L14.9903 12.4773Z" fill="#509AA6"/>
<path fill-rule="evenodd" clip-rule="evenodd" d="M22.5228 12.8829V11.6449C22.5228 11.5003 22.4633 11.3684 22.3675 11.2726C22.2717 11.1768 22.1399 11.1173 21.9953 11.1173H18.1534C18.1146 11.1173 18.0789 11.1336 18.0529 11.1597L18.0409 11.1711C18.022 11.1951 18.0106 11.226 18.0106 11.2602V12.4782C18.0106 12.8519 18.1638 13.1921 18.4107 13.4389C18.6575 13.6857 18.9976 13.839 19.3714 13.839H21.5667C21.8291 13.839 22.0681 13.7313 22.2416 13.5578C22.4151 13.3843 22.5228 13.1454 22.5228 12.8829V12.8829Z" fill="#509AA6"/>
</svg>
