<svg width="26" height="26" viewBox="0 0 26 26" fill="none" xmlns="http://www.w3.org/2000/svg">
<g clip-path="url(#clip0)">
<path d="M24 2.2334H2.00002C0.878668 2.2334 0 3.11207 0 4.23342V21.7668C0 22.8881 0.878668 23.7668 2.00002 23.7668H24C25.1214 23.7668 26 22.8881 26 21.7668V4.23342C26 3.11207 25.1213 2.2334 24 2.2334ZM24 21.7668H2.00002L1.98468 4.23474C1.98468 4.23474 1.98936 4.23342 2.00002 4.23342H24V21.7668H24Z" fill="#4BB7D4"/>
<path d="M9.9363 8.59513C9.59896 8.18746 9.00162 8.11413 8.5743 8.42745L0.407654 14.4275L1.59197 16.0395L8.99862 10.5978L19.5303 23.3048L21.0696 22.0285L9.9363 8.59513Z" fill="#4BB7D4"/>
<path d="M19.5537 9.48275C19.1893 9.19442 18.6747 9.19543 18.3107 9.48443L13.5773 13.2511L14.8226 14.8161L18.9353 11.5434L24.3796 15.8511L25.6203 14.2827L19.5537 9.48275Z" fill="#4BB7D4"/>
</g>
<defs>
<clipPath id="clip0">
<rect width="26" height="26" fill="white"/>
</clipPath>
</defs>
</svg>
