<svg width="35" height="43" viewBox="0 0 35 43" fill="none" xmlns="http://www.w3.org/2000/svg">
<path fill-rule="evenodd" clip-rule="evenodd" d="M9.73952 9.2854H34.1312C34.6058 9.2854 34.9906 9.67018 34.9906 10.1448V41.2651C34.9906 41.7397 34.6058 42.1245 34.1312 42.1245H9.73952C9.26491 42.1245 8.88013 41.7397 8.88013 41.2651V10.1448C8.88013 9.67018 9.26491 9.2854 9.73952 9.2854ZM12.7078 19.3785H31.1629V21.0973H12.7078V19.3785ZM12.7078 15.1731H23.3018V16.8919H12.7078V15.1731ZM12.7078 23.5839H31.1629V25.3027H12.7078V23.5839ZM12.7078 27.7893H31.1629V29.5081H12.7078V27.7893ZM12.7078 31.9948H31.1629V33.7136H12.7078V31.9948ZM12.7078 36.2002H31.1629V37.919H12.7078V36.2002Z" fill="#509AA6"/>
<path d="M8.02072 36.2004V10.1449C8.02072 9.19592 8.79054 8.4261 9.73948 8.4261H29.0663H30.7851V5.93941C30.7851 5.4648 30.4004 5.08002 29.9257 5.08002H5.53408C5.05946 5.08002 4.67468 5.4648 4.67468 5.93941V37.0597C4.67468 37.5344 5.05947 37.9191 5.53408 37.9191H8.02076V36.2003L8.02072 36.2004Z" fill="#99E4F0"/>
<path d="M3.3555 31.995V5.93948C3.3555 4.99054 4.12532 4.22071 5.07426 4.22071H24.4011H26.1199V1.73403C26.1199 1.25942 25.7351 0.874634 25.2605 0.874634H0.868856C0.394243 0.874634 0.00946045 1.25942 0.00946045 1.73403V32.8544C0.00946045 33.329 0.394245 33.7138 0.868856 33.7138H3.35554V31.995L3.3555 31.995Z" fill="#99E4F0"/>
</svg>
