<svg xmlns="http://www.w3.org/2000/svg" fill="none" viewBox="0 0 75 75">
    <g fill="currentColor">
        <path
                d="M73.11 27.276l-3.774-3.261a1.12 1.12 0 10-1.465 1.696l3.773 3.261a3.229 3.229 0 01.332 4.549L47.462 61.885a1.12 1.12 0 001.696 1.466l24.514-28.365a5.473 5.473 0 00-.562-7.71zM66.466 21.534L49.007 6.446a5.434 5.434 0 00-3.971-1.317 5.43 5.43 0 00-3.739 1.878l-1.663 1.925a1.12 1.12 0 101.696 1.466l1.663-1.925A3.204 3.204 0 0145.2 7.365a3.2 3.2 0 012.343.777L65 23.23a1.119 1.119 0 001.581-.115 1.121 1.121 0 00-.115-1.581z"
        />
        <path
                d="M55.825 17.571L25.622 7.441a5.472 5.472 0 00-6.921 3.444l-.399 1.188a1.121 1.121 0 002.126.712l.398-1.187a3.228 3.228 0 014.083-2.032l30.203 10.13a3.228 3.228 0 012.032 4.083L43.092 65.676a1.121 1.121 0 002.125.713L59.27 24.492a5.473 5.473 0 00-3.445-6.921z"
        />
        <path
                d="M37.324 14.761H5.467A5.473 5.473 0 000 20.227V64.42a5.473 5.473 0 005.466 5.466h31.858a5.473 5.473 0 005.466-5.466V20.227a5.473 5.473 0 00-5.466-5.466zm3.224 49.658a3.228 3.228 0 01-3.224 3.224H5.467a3.228 3.228 0 01-3.225-3.224V20.227a3.228 3.228 0 013.224-3.224h31.858a3.228 3.228 0 013.224 3.224V64.42z"
        />
        <path
                d="M37.907 45.697H4.883a1.12 1.12 0 100 2.242h33.024a1.12 1.12 0 100-2.242zM32.681 52.107h-13.88a1.12 1.12 0 100 2.242h13.88a1.12 1.12 0 000-2.242zM15.065 52.107h-4.957a1.12 1.12 0 100 2.242h4.957a1.12 1.12 0 000-2.242zM32.682 56.392H10.108a1.12 1.12 0 000 2.242h22.574a1.12 1.12 0 000-2.242zM32.682 60.676H10.108a1.12 1.12 0 000 2.242h22.574a1.12 1.12 0 000-2.242zM33.714 27.767a1.12 1.12 0 00-.904-.763l-7.193-1.045L22.4 19.44a1.12 1.12 0 00-2.01 0l-3.217 6.518-7.193 1.045a1.12 1.12 0 00-.621 1.911l5.205 5.074-1.229 7.164a1.12 1.12 0 001.626 1.181l6.434-3.382 6.433 3.382a1.12 1.12 0 001.627-1.181l-1.23-7.164 5.206-5.074a1.12 1.12 0 00.283-1.148zm-7.475 5.028a1.12 1.12 0 00-.322.992l.944 5.506-4.945-2.6a1.121 1.121 0 00-1.043 0l-4.945 2.6.945-5.506a1.12 1.12 0 00-.323-.992l-4-3.9 5.528-.803a1.12 1.12 0 00.844-.613l2.473-5.01 2.472 5.01c.163.33.479.56.844.613l5.529.803-4 3.9z"
        />
    </g>
</svg>
