<svg width="24" height="24" viewBox="0 0 24 24" fill="none" xmlns="http://www.w3.org/2000/svg">
<path d="M5.25 0H0.75C0.336 0 0 0.336 0 0.75V5.25C0 5.664 0.336 6 0.75 6H5.25C5.664 6 6 5.664 6 5.25V0.75C6 0.336 5.664 0 5.25 0ZM4.5 4.5H1.5V1.5H4.5V4.5Z" fill="#4BB7D4"/>
<path d="M5.25 9H0.75C0.336 9 0 9.336 0 9.75V14.25C0 14.664 0.336 15 0.75 15H5.25C5.664 15 6 14.664 6 14.25V9.75C6 9.336 5.664 9 5.25 9ZM4.5 13.5H1.5V10.5H4.5V13.5Z" fill="#4BB7D4"/>
<path d="M5.25 18H0.75C0.336 18 0 18.336 0 18.75V23.25C0 23.664 0.336 24 0.75 24H5.25C5.664 24 6 23.664 6 23.25V18.75C6 18.336 5.664 18 5.25 18ZM4.5 22.5H1.5V19.5H4.5V22.5Z" fill="#4BB7D4"/>
<path d="M24 0.75H9V2.25H24V0.75Z" fill="#4BB7D4"/>
<path d="M24 3.75H9V5.25H24V3.75Z" fill="#4BB7D4"/>
<path d="M24 9.75H9V11.25H24V9.75Z" fill="#4BB7D4"/>
<path d="M24 12.75H9V14.25H24V12.75Z" fill="#4BB7D4"/>
<path d="M24 18.75H9V20.25H24V18.75Z" fill="#4BB7D4"/>
<path d="M24 21.75H9V23.25H24V21.75Z" fill="#4BB7D4"/>
</svg>
