<svg xmlns="http://www.w3.org/2000/svg" fill="none" viewBox="0 0 75 75">
    <g fill="currentColor">
        <path
                d="M73.484 13.233L61.767 1.516a1.165 1.165 0 00-.83-.344H30.47c-.648 0-1.172.525-1.172 1.172v39.833l-9.966-5.694a1.17 1.17 0 00-1.162 0L1.762 45.858a1.17 1.17 0 00-.59 1.017v16.406c0 .421.225.809.59 1.017l16.407 9.375a1.167 1.167 0 001.162 0l16.406-9.375a1.17 1.17 0 00.591-1.017v-3.515h23.438v9.375a4.692 4.692 0 004.687 4.687 4.692 4.692 0 004.688-4.687v-9.375h3.515c.648 0 1.172-.525 1.172-1.172V14.062c0-.324-.131-.617-.344-.83zm-11.375-8.06l7.718 7.718H62.11V5.173zM18.75 38.85l14.044 8.025-3.644 2.082-14.043-8.025 3.643-2.082zm6.44 12.867l-14.48-8.273 2.034-1.162 15.381 8.788v4.456l-2.344 1.172v-3.964c0-.42-.225-.808-.59-1.017zM8.35 44.793l14.045 8.025L18.75 54.9 4.706 46.875l3.644-2.082zm-4.834 4.101l14.062 8.036v13.707L3.516 62.602V48.894zm16.406 21.743V56.93l3.515-2.009v3.673a1.173 1.173 0 001.696 1.049l4.688-2.344c.397-.2.648-.605.648-1.049v-5.346l3.515-2.009v13.707l-14.062 8.035zm43.36-30.166v23.982h-1.173V39.69l1.172.782zm2.343 0l1.172-.782v24.764h-1.172V40.471zm-1.172-2.036l-2.092-1.394 2.092-5.578 2.092 5.578-2.092 1.394zm0 33.05a2.346 2.346 0 01-2.344-2.344v-2.344h4.688v2.344a2.346 2.346 0 01-2.344 2.343zm7.031-14.063h-2.343V37.5c0-.14-.025-.28-.074-.411l-3.516-9.375a1.174 1.174 0 00-2.196 0l-3.515 9.375a1.17 1.17 0 00-.074.411v19.922H36.328V46.875c0-.42-.225-.809-.59-1.017l-4.097-2.342v-40h28.125v10.546c0 .647.523 1.172 1.172 1.172h10.546v42.188z"
        />
        <path
                d="M33.984 17.578h2.344v2.344h-2.344v-2.344zM38.672 17.578H69.14v2.344H38.67v-2.344zM66.797 22.266h2.344v2.343h-2.344v-2.343zM33.984 22.266h30.47v2.343h-30.47v-2.343zM33.984 26.953h23.438v2.344H33.984v-2.344zM33.984 31.64h23.438v2.344H33.984v-2.343z"
        />
    </g>
</svg>
