<svg width="35" height="43" viewBox="0 0 35 43" fill="none" xmlns="http://www.w3.org/2000/svg">
<path fill-rule="evenodd" clip-rule="evenodd" d="M25.7575 27.5875V39.8198C25.7575 40.4544 25.4983 41.0309 25.081 41.4482C24.6637 41.8655 24.0873 42.1247 23.4526 42.1247H3.21466C2.57996 42.1247 2.00353 41.8656 1.58614 41.4483C1.16881 41.0309 0.909729 40.4545 0.909729 39.8198V3.17949C0.909729 2.54479 1.16881 1.96836 1.58614 1.55097C2.00353 1.13364 2.57996 0.874556 3.21466 0.874556H23.4526C24.0873 0.874556 24.6637 1.13364 25.081 1.55097C25.4984 1.96832 25.7575 2.54482 25.7575 3.17949V8.56149C25.7575 8.57741 25.757 8.59324 25.7562 8.60894H24.04C24.0391 8.59324 24.0387 8.57741 24.0387 8.56149V7.22792C24.0387 7.06768 23.9725 6.92126 23.8658 6.81462C23.7592 6.70801 23.6128 6.64178 23.4526 6.64178H3.21466C3.05438 6.64178 2.908 6.70798 2.80136 6.81462C2.69472 6.92126 2.62852 7.06765 2.62852 7.22792V34.029C2.62852 34.1893 2.69472 34.3357 2.80136 34.4423C2.908 34.5489 3.05438 34.6151 3.21466 34.6151H23.4526C23.6128 34.6151 23.7592 34.5489 23.8658 34.4422C23.9725 34.3356 24.0387 34.1892 24.0387 34.029V27.5875H25.7575V27.5875ZM13.3337 36.3231C14.1205 36.3231 14.7584 36.961 14.7584 37.7479C14.7584 38.5347 14.1205 39.1727 13.3337 39.1727C12.5468 39.1727 11.9089 38.5347 11.9089 37.7479C11.9089 36.961 12.5468 36.3231 13.3337 36.3231ZM11.2659 3.88243C10.9099 3.88243 10.6214 4.17101 10.6214 4.52696C10.6214 4.88292 10.9099 5.17149 11.2659 5.17149H15.4014C15.7574 5.17149 16.0459 4.88292 16.0459 4.52696C16.0459 4.17101 15.7574 3.88243 15.4014 3.88243H11.2659Z" fill="#509AA6"/>
<path fill-rule="evenodd" clip-rule="evenodd" d="M13.334 17.6674C13.434 17.868 13.5355 18.1018 13.6364 18.3343C13.8641 18.8587 14.0884 19.3753 14.2611 19.4484C14.4375 19.523 14.9778 19.3057 15.5166 19.089C15.8337 18.9614 16.3474 18.6469 16.6507 18.9459C16.8563 19.1122 17.0443 19.2806 17.2139 19.4502C17.3939 19.6302 17.5726 19.831 17.749 20.0515L17.7508 20.0501C17.8586 20.1847 17.8795 20.3609 17.8213 20.5108C17.7537 20.7046 17.6646 20.9261 17.5754 21.1478C17.3587 21.6866 17.1414 22.2269 17.216 22.4033C17.2891 22.576 17.8058 22.8004 18.3301 23.028C18.6377 23.1615 19.2542 23.3199 19.2836 23.7283C19.3268 24.1058 19.5226 25.5764 18.997 25.7951C18.7964 25.895 18.5626 25.9966 18.3301 26.0975C17.8058 26.3252 17.2891 26.5495 17.216 26.7222C17.1414 26.8986 17.3587 27.4388 17.5755 27.9776C17.6673 28.206 17.7591 28.4343 17.8273 28.6322L17.8276 28.6321C17.8873 28.8053 17.839 28.9896 17.7186 29.1117C17.4259 29.4734 16.6224 30.4648 16.1534 30.2822C15.9596 30.2147 15.7382 30.1256 15.5166 30.0365C14.9778 29.8198 14.4375 29.6025 14.2612 29.6771C14.0884 29.7502 13.8641 30.2668 13.6364 30.7912C13.5029 31.0988 13.3445 31.7152 12.9361 31.7446C12.4293 31.8028 11.0758 31.9542 10.8694 31.4581C10.7694 31.2575 10.6679 31.0237 10.567 30.7912C10.3393 30.2668 10.115 29.7502 9.94224 29.6771C9.76585 29.6025 9.22562 29.8198 8.68683 30.0365C8.45842 30.1284 8.23017 30.2202 8.03231 30.2884L8.0324 30.2887C7.85919 30.3483 7.6749 30.3001 7.55272 30.1797C7.34711 30.0133 7.15911 29.8449 6.98954 29.6753C6.75257 29.4384 6.23117 29.0029 6.38215 28.6146C6.44968 28.4208 6.53882 28.1993 6.62798 27.9776C6.84468 27.4388 7.06196 26.8986 6.98736 26.7222C6.91431 26.5495 6.39763 26.3252 5.87326 26.0975C5.56568 25.964 4.94922 25.8056 4.91981 25.3972C4.90509 25.2687 4.89336 25.1331 4.88492 24.9903C4.87588 24.8375 4.87122 24.6948 4.87122 24.5628C4.87122 24.4308 4.87588 24.288 4.88492 24.1353C4.89383 23.9845 4.90642 23.8417 4.92235 23.7067L4.9219 23.7067C4.94239 23.5331 5.05573 23.3931 5.20633 23.3305C5.40692 23.2305 5.64069 23.129 5.87325 23.028C6.39763 22.8004 6.91431 22.576 6.98735 22.4033C7.06195 22.2269 6.84465 21.6867 6.62791 21.1479C6.53605 20.9195 6.44423 20.6912 6.37606 20.4934L6.37577 20.4934C6.31611 20.3202 6.36436 20.1359 6.48479 20.0138C6.65116 19.8082 6.81956 19.6202 6.98913 19.4506C7.22607 19.2136 7.66151 18.6922 8.04987 18.8432C8.24368 18.9108 8.4652 18.9999 8.68689 19.0891C9.22564 19.3057 9.76584 19.523 9.94223 19.4484C10.1149 19.3754 10.3393 18.8587 10.5669 18.3343C10.828 17.7329 10.8272 17.4804 11.3274 17.3849C11.7809 17.2983 13.1396 17.2002 13.334 17.6674L13.334 17.6674ZM12.1017 20.9309C13.1045 20.9309 14.0125 21.3375 14.6697 21.9947C15.327 22.652 15.7335 23.5599 15.7335 24.5627C15.7335 25.5656 15.327 26.4735 14.6697 27.1308C14.0125 27.788 13.1045 28.1945 12.1017 28.1945C11.0989 28.1945 10.1909 27.788 9.53367 27.1308C8.87642 26.4735 8.46991 25.5656 8.46991 24.5627C8.46991 23.5599 8.87642 22.652 9.53367 21.9947C10.1909 21.3375 11.0989 20.9309 12.1017 20.9309ZM14.0101 22.6544C13.5217 22.166 12.847 21.8639 12.1017 21.8639C11.3564 21.8639 10.6817 22.166 10.1933 22.6544C9.70495 23.1427 9.40289 23.8174 9.40289 24.5627C9.40289 25.308 9.70495 25.9828 10.1933 26.4711C10.6817 26.9595 11.3564 27.2616 12.1017 27.2616C12.847 27.2616 13.5217 26.9595 14.0101 26.4711C14.4984 25.9828 14.8005 25.308 14.8005 24.5627C14.8005 23.8174 14.4984 23.1427 14.0101 22.6544ZM12.1017 22.8078C12.5862 22.8078 13.025 23.0043 13.3426 23.3219C13.6602 23.6395 13.8566 24.0782 13.8566 24.5627C13.8566 25.0473 13.6602 25.4861 13.3426 25.8036C13.025 26.1212 12.5862 26.3177 12.1017 26.3177C11.6171 26.3177 11.1784 26.1212 10.8608 25.8036C10.5432 25.4861 10.3468 25.0473 10.3468 24.5627C10.3468 24.0782 10.5432 23.6395 10.8608 23.3219C11.1784 23.0043 11.6171 22.8078 12.1017 22.8078ZM12.6829 23.9815C12.5342 23.8328 12.3287 23.7408 12.1017 23.7408C11.8747 23.7408 11.6692 23.8328 11.5205 23.9815C11.3717 24.1302 11.2797 24.3358 11.2797 24.5627C11.2797 24.7898 11.3717 24.9953 11.5205 25.144C11.6692 25.2927 11.8747 25.3847 12.1017 25.3847C12.3287 25.3847 12.5342 25.2927 12.6829 25.144C12.8317 24.9953 12.9236 24.7898 12.9236 24.5627C12.9236 24.3358 12.8317 24.1302 12.6829 23.9815Z" fill="#B4EDF6"/>
<path fill-rule="evenodd" clip-rule="evenodd" d="M34.0906 14.065V26.3857C34.0906 26.5748 33.9035 26.728 33.6727 26.728H18.0514C18.2369 26.6428 18.4263 26.564 18.5165 26.5249C18.7432 26.4264 18.9667 26.3215 19.1914 26.2189C20.0052 25.8472 19.8164 24.4113 19.7486 23.6845C19.7075 23.2431 19.3716 22.9729 18.9965 22.7967C18.8379 22.7222 18.6756 22.6686 18.5165 22.5996C18.3587 22.5311 17.8967 22.341 17.6839 22.208C17.742 21.9593 17.9433 21.4843 18.0088 21.3214C18.0954 21.106 18.1793 20.8893 18.2596 20.6715C18.3731 20.3633 18.3221 20.0162 18.1157 19.7582L17.8243 19.3939L17.8125 19.4033C17.7256 19.3064 17.6363 19.2118 17.5443 19.1198C17.3598 18.9353 17.1565 18.7712 16.9621 18.5975C16.6182 18.2902 16.185 18.3222 15.7797 18.4713C15.6299 18.5264 15.4901 18.5966 15.3431 18.6557C15.1802 18.7212 14.7052 18.9225 14.4565 18.9806C14.3235 18.7678 14.1334 18.3058 14.0649 18.148C13.9665 17.9213 13.8616 17.6978 13.7589 17.4731C13.5186 16.9468 12.7961 16.8596 12.2872 16.8486C11.9524 16.8414 11.5703 16.8632 11.2405 16.9261C10.4797 17.0714 10.4065 17.5335 10.1397 18.148C10.0712 18.3058 9.88103 18.7679 9.74813 18.9806C9.49939 18.9226 9.02449 18.7212 8.86158 18.6557C8.64624 18.5691 8.42957 18.4852 8.21179 18.405C7.88004 18.2827 7.56253 18.3793 7.28657 18.5581V14.065H34.0906L34.0906 14.065ZM27.8179 10.7005V12.3721H29.4895V10.7005H27.8179ZM24.8949 12.3721H26.5665V10.7005H24.8949V12.3721ZM30.7494 10.7005V12.3721H32.4209V10.7005H30.7494ZM7.70446 9.46821H33.6726C33.9034 9.46821 34.0905 9.65532 34.0905 9.88611V13.6471H7.28656V9.88611C7.28656 9.65532 7.47367 9.46821 7.70446 9.46821H7.70446Z" fill="#509AA6"/>
</svg>
