<svg width="160" height="160" viewBox="0 0 160 160" fill="none" xmlns="http://www.w3.org/2000/svg">
<g clip-path="url(#clip0)">
<path opacity="0.3" d="M21.3021 37.6823C30.3862 37.6823 37.7503 30.3146 37.7503 21.2259C37.7503 12.1373 30.3862 4.76956 21.3021 4.76956C12.2181 4.76956 4.854 12.1373 4.854 21.2259C4.854 30.3146 12.2181 37.6823 21.3021 37.6823Z" fill="#0081F1"/>
<path opacity="0.3" d="M141.356 54.1422C150.44 54.1422 157.804 46.7744 157.804 37.6858C157.804 28.5972 150.44 21.2294 141.356 21.2294C132.272 21.2294 124.908 28.5972 124.908 37.6858C124.908 46.7744 132.272 54.1422 141.356 54.1422Z" fill="#0081F1"/>
<path opacity="0.3" d="M106.725 156.259C117.878 156.259 126.919 147.213 126.919 136.055C126.919 124.896 117.878 115.85 106.725 115.85C95.5716 115.85 86.5303 124.896 86.5303 136.055C86.5303 147.213 95.5716 156.259 106.725 156.259Z" fill="#0081F1"/>
<path opacity="0.3" d="M134.927 90.2696C139.825 90.2696 143.796 86.2969 143.796 81.3964C143.796 76.4958 139.825 72.5232 134.927 72.5232C130.029 72.5232 126.058 76.4958 126.058 81.3964C126.058 86.2969 130.029 90.2696 134.927 90.2696Z" fill="#0081F1"/>
<path d="M21.3022 26.5255C24.2276 26.5255 26.5991 24.1528 26.5991 21.226C26.5991 18.2991 24.2276 15.9264 21.3022 15.9264C18.3769 15.9264 16.0054 18.2991 16.0054 21.226C16.0054 24.1528 18.3769 26.5255 21.3022 26.5255Z" fill="#0081F1"/>
<path d="M141.357 40.1961C142.935 40.1961 144.214 38.9161 144.214 37.3372C144.214 35.7582 142.935 34.4782 141.357 34.4782C139.778 34.4782 138.499 35.7582 138.499 37.3372C138.499 38.9161 139.778 40.1961 141.357 40.1961Z" fill="#0081F1"/>
<path d="M106.725 138.914C108.303 138.914 109.582 137.634 109.582 136.055C109.582 134.476 108.303 133.196 106.725 133.196C105.147 133.196 103.867 134.476 103.867 136.055C103.867 137.634 105.147 138.914 106.725 138.914Z" fill="#0081F1"/>
<path d="M119.734 137.798C120.696 137.798 121.476 137.017 121.476 136.055C121.476 135.092 120.696 134.311 119.734 134.311C118.771 134.311 117.991 135.092 117.991 136.055C117.991 137.017 118.771 137.798 119.734 137.798Z" fill="#0081F1"/>
<path d="M92.7859 137.798C93.7482 137.798 94.5283 137.017 94.5283 136.055C94.5283 135.092 93.7482 134.311 92.7859 134.311C91.8236 134.311 91.0435 135.092 91.0435 136.055C91.0435 137.017 91.8236 137.798 92.7859 137.798Z" fill="#0081F1"/>
<path d="M106.725 124.842C107.687 124.842 108.467 124.061 108.467 123.099C108.467 122.136 107.687 121.355 106.725 121.355C105.763 121.355 104.982 122.136 104.982 123.099C104.982 124.061 105.763 124.842 106.725 124.842Z" fill="#0081F1"/>
<path d="M106.725 150.757C107.687 150.757 108.467 149.977 108.467 149.014C108.467 148.051 107.687 147.271 106.725 147.271C105.763 147.271 104.982 148.051 104.982 149.014C104.982 149.977 105.763 150.757 106.725 150.757Z" fill="#0081F1"/>
<path d="M79.9998 93.3412C93.2737 93.3412 104.034 82.5752 104.034 69.2946C104.034 56.0141 93.2737 45.2481 79.9998 45.2481C66.7259 45.2481 55.9653 56.0141 55.9653 69.2946C55.9653 82.5752 66.7259 93.3412 79.9998 93.3412Z" stroke="#0081F1" stroke-width="6" stroke-miterlimit="10" stroke-linecap="round" stroke-dasharray="30.96 30.96 51.6 30.96"/>
<path opacity="0.3" d="M55.9619 44.3974C55.9619 44.3974 69.4341 51.1368 71.7584 63.9219C74.0828 76.707 89.6458 78.4398 92.7821 89.6594C95.9184 100.879 92.7821 102.507 92.7821 102.507L79.972 104.366L62.001 100.412L51.5467 88.094L44.5771 70.4278L49.2224 53.3159L55.9619 44.3974Z" fill="#0081F1"/>
<path d="M106.47 160C101.794 159.942 97.2367 158.522 93.3554 155.912C89.474 153.303 86.4374 149.618 84.6174 145.308C84.2191 144.339 83.7388 143.406 83.1816 142.519C73.2814 126.923 63.5554 111.213 53.3659 95.7992C48.4872 88.4077 42.7199 81.5811 37.315 74.5314C28.6519 63.2397 19.9643 51.9666 11.2524 40.7121C10.6081 39.8965 9.84998 39.1779 9.00121 38.5784C4.47042 35.3735 1.37175 30.5231 0.367058 25.0633C-0.63763 19.6035 0.531312 13.967 3.62421 9.35782C10.0013 -0.181302 22.6511 -2.72646 32.5966 3.10649C39.0992 6.91726 45.9573 10.1249 52.6724 13.5661C63.2661 18.9934 73.875 24.3905 84.4989 29.7575C85.519 30.2362 86.6639 30.3814 87.7711 30.1724C102.648 27.0345 117.507 23.7781 132.376 20.5426C133.281 20.3365 134.171 20.0734 135.042 19.7546C138.563 18.4864 142.383 18.307 146.007 19.2397C149.63 20.1723 152.89 22.174 155.362 24.9844C160.512 30.9115 161.439 38.9863 157.857 45.9698C157.234 47.2763 156.734 48.6386 156.365 50.0386C147.921 78.8442 139.49 107.655 131.073 136.469C130.749 137.583 130.494 138.716 130.31 139.862C129.39 145.512 126.481 150.646 122.11 154.339C117.738 158.032 112.192 160.04 106.47 160ZM112.119 69.2458C112.119 65.0228 111.287 60.8412 109.67 56.9401C108.054 53.039 105.685 49.4949 102.699 46.5102C99.7125 43.5255 96.1678 41.1588 92.2671 39.5454C88.3664 37.932 84.1861 37.1034 79.9652 37.1071C62.3566 37.1315 47.9819 51.5761 47.9749 69.2528C47.9914 77.7231 51.3559 85.843 57.3341 91.8406C63.3124 97.8382 71.4191 101.226 79.885 101.266C97.7271 101.297 112.123 86.9922 112.119 69.2458ZM64.4684 103.347L82.9029 132.324C85.6001 121.212 91.9877 114.218 102.895 112.482C114.454 110.645 122.838 115.836 128.682 126.034L138.374 92.9821C129.613 93.1041 125.616 91.0401 123.556 85.5349C121.782 80.7897 123.006 75.3716 126.971 72.2512C132.84 67.6316 138.562 68.6008 144.078 73.5342L149.737 54.0097C141.259 57.3847 133.77 56.3178 127.759 49.8259C121.674 43.2538 121.399 35.6323 125.41 27.3762L94.0472 34.2202C103.501 38.791 110.558 45.4608 114.471 55.1393C118.385 64.8179 118.305 74.6639 114.123 84.2937C110.823 92.079 104.889 98.4533 97.3612 102.298C86.7953 107.828 75.9298 107.901 64.4684 103.347ZM19.2465 42.5635L42.5143 72.7602C42.9325 49.6516 54.2545 36.1517 76.801 31.7483L41.2737 13.5974C43.6887 21.2364 42.8558 28.0351 38.2385 34.1052C33.6212 40.1752 27.2684 42.7971 19.2465 42.5635ZM106.526 154.648C108.986 154.679 111.428 154.22 113.709 153.298C115.991 152.376 118.066 151.01 119.815 149.278C121.564 147.547 122.952 145.485 123.897 143.213C124.843 140.94 125.327 138.502 125.323 136.041C125.379 125.93 116.987 117.377 106.941 117.318C104.467 117.302 102.015 117.775 99.7243 118.71C97.4339 119.644 95.3505 121.023 93.5939 122.765C91.8374 124.508 90.4421 126.58 89.4883 128.864C88.5345 131.148 88.0409 133.597 88.0359 136.072C87.9941 146.211 96.3332 154.589 106.526 154.648ZM37.2558 21.2434C37.2558 18.0872 36.3203 15.0019 34.5677 12.3777C32.8152 9.75344 30.3241 7.70809 27.4097 6.50028C24.4952 5.29247 21.2883 4.97645 18.1943 5.59219C15.1003 6.20793 12.2584 7.72776 10.0277 9.9595C7.79711 12.1912 6.27804 15.0347 5.66261 18.1302C5.04718 21.2257 5.36304 24.4343 6.57025 27.3502C7.77745 30.2661 9.82178 32.7584 12.4447 34.5118C15.0676 36.2653 18.1514 37.2012 21.306 37.2012C23.4028 37.2095 25.4806 36.8024 27.4195 36.0034C29.3584 35.2044 31.1199 34.0292 32.6027 32.5458C34.0854 31.0623 35.2599 29.2998 36.0586 27.36C36.8572 25.4201 37.2641 23.3413 37.2558 21.2434ZM154.602 37.2605C154.614 35.5144 154.281 33.7833 153.623 32.1661C152.965 30.5489 151.995 29.0774 150.767 27.8358C149.54 26.5942 148.081 25.6069 146.472 24.9303C144.863 24.2538 143.136 23.9014 141.391 23.8931C137.858 23.8857 134.467 25.2829 131.963 27.7774C129.459 30.2718 128.049 33.6592 128.041 37.1942C128.034 40.7293 129.43 44.1225 131.923 46.6274C134.417 49.1323 137.802 50.5437 141.336 50.5511C143.08 50.5543 144.808 50.2126 146.42 49.5456C148.032 48.8786 149.497 47.8995 150.73 46.6645C151.963 45.4295 152.939 43.9629 153.604 42.3491C154.268 40.7352 154.608 39.0059 154.602 37.2605ZM134.68 74.6848C133.807 74.6829 132.942 74.8547 132.136 75.1903C131.331 75.526 130.6 76.0187 129.986 76.6397C129.372 77.2608 128.888 77.9978 128.562 78.8079C128.236 79.6179 128.074 80.4848 128.086 81.358C128.09 83.1149 128.791 84.7984 130.036 86.0381C131.28 87.2778 132.965 87.9721 134.721 87.9684C136.477 87.9647 138.16 87.2633 139.399 86.0183C140.638 84.7734 141.332 83.087 141.329 81.3301C141.337 80.4546 141.17 79.5864 140.838 78.7761C140.507 77.9658 140.017 77.2298 139.398 76.611C138.779 75.9923 138.043 75.5032 137.233 75.1725C136.423 74.8418 135.555 74.676 134.68 74.6848Z" fill="#344050"/>
<path d="M79.8292 85.2699C70.8942 85.1862 63.862 77.8924 63.97 68.8205C64.071 60.5016 71.5528 53.2392 79.9407 53.3229C88.8966 53.41 96.0543 60.5992 95.9707 69.4271C95.9045 78.1434 88.5586 85.3501 79.8292 85.2699ZM80.0174 58.5945C74.0549 58.5945 69.2146 63.3641 69.2738 69.2946C69.333 74.2769 74.5672 80.1028 79.9372 80.0122C85.8997 79.9181 90.7156 75.2566 90.74 69.3155C90.7488 67.9046 90.4774 66.5059 89.9416 65.2008C89.4058 63.8956 88.6162 62.7099 87.6186 61.7125C86.6211 60.7151 85.4355 59.9259 84.1306 59.3906C82.8257 58.8554 81.4276 58.5848 80.0174 58.5945Z" fill="#344050"/>
<path d="M98.7131 135.957C98.713 134.909 98.921 133.871 99.325 132.903C99.729 131.936 100.321 131.059 101.067 130.322C101.812 129.586 102.697 129.004 103.668 128.612C104.64 128.221 105.68 128.026 106.728 128.039C108.847 128.039 110.879 128.878 112.381 130.373C113.883 131.868 114.732 133.897 114.743 136.016C114.711 138.16 113.839 140.206 112.315 141.713C110.79 143.22 108.735 144.067 106.592 144.074C104.477 144.025 102.466 143.147 100.992 141.629C99.5182 140.11 98.6997 138.073 98.7131 135.957ZM109.122 135.957C109.077 135.314 108.784 134.715 108.304 134.285C107.825 133.856 107.197 133.63 106.554 133.656C105.942 133.698 105.367 133.962 104.937 134.4C104.508 134.838 104.253 135.418 104.222 136.03C104.222 137.125 105.505 138.37 106.634 138.394C107.861 138.415 109.15 137.16 109.122 135.974V135.957Z" fill="#344050"/>
<path d="M31.9553 21.341C31.9323 23.4517 31.2836 25.5081 30.0913 27.2496C28.8991 28.9911 27.217 30.3393 25.2582 31.1235C23.2994 31.9076 21.152 32.0924 19.0881 31.6543C17.0243 31.2163 15.1368 30.1752 13.6649 28.6629C12.193 27.1506 11.2029 25.2353 10.82 23.1595C10.4371 21.0837 10.6788 18.9409 11.5142 17.0026C12.3497 15.0643 13.7414 13.4177 15.5131 12.2716C17.2848 11.1254 19.3566 10.5311 21.4661 10.5642C22.8639 10.5768 24.2452 10.8663 25.5306 11.4159C26.8159 11.9655 27.9797 12.7642 28.9549 13.7662C29.93 14.7681 30.6973 15.9533 31.2122 17.2534C31.7272 18.5535 31.9798 19.9427 31.9553 21.341ZM26.3483 21.4595C26.4529 18.5134 24.3934 16.3866 21.2849 16.2507C20.6616 16.2212 20.0385 16.3151 19.4515 16.5272C18.8646 16.7392 18.3252 17.0652 17.8645 17.4863C17.4037 17.9074 17.0306 18.4155 16.7666 18.9812C16.5027 19.547 16.3529 20.1593 16.3261 20.7832C16.225 23.8618 18.2497 26.2012 21.0968 26.2884C24.0449 26.3686 26.2507 24.3324 26.3518 21.4595H26.3483Z" fill="#344050"/>
<path d="M141.454 45.2446C139.865 45.2603 138.307 44.8012 136.98 43.926C135.653 43.0509 134.617 41.7995 134.005 40.332C133.392 38.8645 133.232 37.2476 133.543 35.6882C133.854 34.1288 134.624 32.6978 135.753 31.5784C136.881 30.4589 138.318 29.7019 139.88 29.4041C141.441 29.1064 143.056 29.2814 144.517 29.9069C145.978 30.5324 147.22 31.5799 148.083 32.9154C148.946 34.2508 149.391 35.8135 149.361 37.4034C149.341 39.4888 148.499 41.4821 147.019 42.9502C145.538 44.4184 143.539 45.2429 141.454 45.2446ZM143.719 37.3058C143.738 36.6596 143.5 36.0324 143.057 35.5618C142.614 35.0911 142.002 34.8155 141.356 34.7955C140.172 34.7955 139.057 35.9426 139.022 37.1768C138.983 38.4738 140.158 39.7115 141.402 39.6871C142.015 39.6493 142.592 39.3845 143.02 38.9443C143.449 38.504 143.698 37.9199 143.719 37.3058Z" fill="#344050"/>
</g>
<defs>
<clipPath id="clip0">
<rect width="160" height="160" fill="white"/>
</clipPath>
</defs>
</svg>
