<svg width="21" height="16" viewBox="0 0 21 16" fill="none" xmlns="http://www.w3.org/2000/svg">
<path d="M19.8921 3.316C19.8284 3.14933 19.664 3.02267 19.4584 2.98133C19.2537 2.94 19.0369 2.99 18.8878 3.11333L16.3342 5.22467L14.3796 4.762L13.8202 3.14533L16.3737 1.03333C16.5237 0.91 16.5833 0.730667 16.5333 0.561333C16.4834 0.391333 16.3302 0.256 16.1287 0.202667C15.6128 0.0686667 15.0639 0 14.4957 0C11.3844 0 8.85344 2.09333 8.85344 4.66667C8.85344 5.21133 8.96386 5.73733 9.1823 6.23467L1.5024 12.5867C1.04457 12.9647 0.793091 13.4667 0.793091 14C0.793091 14.5333 1.04457 15.0353 1.5024 15.4133C1.95942 15.792 2.56637 16 3.21119 16C3.85602 16 4.46297 15.792 4.91999 15.4133L12.5999 9.06133C13.2012 9.242 13.8371 9.33333 14.4957 9.33333C17.607 9.33333 20.1379 7.24 20.1379 4.66667C20.1379 4.19667 20.0549 3.74267 19.8921 3.316Z" fill="#FFD500"/>
</svg>
