<svg xmlns="http://www.w3.org/2000/svg" viewBox="0 0 18 18">
    <path d="M2.672 8.438c.425 0 .81-.171 1.095-.445l1.561.78c-.008.064-.02.126-.02.192 0 .872.71 1.582 1.583 1.582.872 0 1.582-.71 1.582-1.582 0-.244-.06-.472-.159-.678l2.118-2.117c.206.098.434.158.677.158.873 0 1.582-.71 1.582-1.582 0-.164-.032-.32-.079-.468l1.84-1.38a1.584 1.584 0 002.458-1.316C16.91.71 16.2 0 15.328 0c-.872 0-1.582.71-1.582 1.582 0 .164.032.32.08.469l-1.84 1.38a1.571 1.571 0 00-.877-.267c-.872 0-1.582.71-1.582 1.582 0 .244.06.472.159.678L7.568 7.54a1.563 1.563 0 00-.677-.158c-.426 0-.81.17-1.095.445l-1.561-.78c.007-.064.019-.127.019-.193 0-.872-.71-1.582-1.582-1.582-.872 0-1.582.71-1.582 1.582 0 .873.71 1.582 1.582 1.582z"/>
    <path d="M17.473 16.945h-.563V5.801a.527.527 0 00-.527-.528h-2.11a.527.527 0 00-.527.528v11.144h-1.055v-7.98a.527.527 0 00-.527-.527h-2.11a.527.527 0 00-.527.527v7.98H8.473v-3.761a.527.527 0 00-.528-.528h-2.11a.527.527 0 00-.526.528v3.761H4.254v-5.87a.527.527 0 00-.527-.528h-2.11a.527.527 0 00-.527.527v5.871H.527a.527.527 0 100 1.055h16.946a.527.527 0 100-1.055z"/>
</svg>
