<svg xmlns="http://www.w3.org/2000/svg" fill="none" viewBox="0 0 75 75">
   <g fill="currentColor">
       <path d="M74.592 16.171a1.2 1.2 0 00-.064-.32c-.014-.041-.024-.08-.041-.119a1.256 1.256 0 00-.25-.366l-15-15a1.232 1.232 0 00-.368-.25c-.037-.017-.075-.027-.113-.04a1.23 1.23 0 00-.328-.066c-.022.004-.044-.01-.07-.01h-37.5a6.258 6.258 0 00-6.25 6.25v9.2a23.703 23.703 0 000 43.375v9.925a6.258 6.258 0 006.25 6.25h47.5a6.257 6.257 0 006.25-6.25v-52.5c0-.028-.014-.051-.016-.079zM70.34 15h-9.482c-.69 0-1.25-.56-1.25-1.25V4.268L70.34 15zM2.995 37.138a21.222 21.222 0 0121.25-21.25 21.192 21.192 0 0120.987 18.068c.167 1.052.254 2.116.262 3.181a21.08 21.08 0 01-3.261 11.31 21.248 21.248 0 01-39.238-11.31zm35.768 18.777c.17-.132.34-.264.507-.4a23.378 23.378 0 001.771-1.581 23.477 23.477 0 001.582-1.77c.136-.168.267-.338.4-.509.15-.198.315-.385.46-.586l10.656 10.669a3.722 3.722 0 010 5.288 3.808 3.808 0 01-5.293 0l-10.67-10.65c.202-.147.39-.31.587-.461zM68.358 72.5h-47.5a3.75 3.75 0 01-3.75-3.75v-8.949c.077.025.158.042.237.065.2.061.403.11.605.166a21.494 21.494 0 002.119.48c.476.083.956.149 1.439.205.215.024.427.055.644.073.692.059 1.39.098 2.093.098a23.594 23.594 0 0011.774-3.138l11.053 11.041a6.25 6.25 0 108.833-8.826L44.858 48.911a23.587 23.587 0 003.137-11.774c0-.791-.038-1.577-.115-2.356a23.625 23.625 0 00-6.838-14.439 23.594 23.594 0 00-18.89-6.857c-.217.019-.43.049-.646.074a23.598 23.598 0 00-2.144.341c-.47.098-.937.212-1.4.34-.207.056-.414.106-.624.169-.078.023-.157.04-.234.065V6.25a3.75 3.75 0 013.75-3.75h36.254v11.25a3.75 3.75 0 003.75 3.75h11.25v51.25a3.75 3.75 0 01-3.75 3.75z"
       />
       <path d="M52.108 8.75c0-.69-.56-1.25-1.25-1.25h-27.5a1.25 1.25 0 000 2.5h27.5c.69 0 1.25-.56 1.25-1.25zM65.858 30h-15a1.25 1.25 0 000 2.5h15a1.25 1.25 0 000-2.5zm0 7.5h-15a1.25 1.25 0 000 2.5h15a1.25 1.25 0 000-2.5zm1.25 8.75c0-.69-.56-1.25-1.25-1.25h-16.25a1.25 1.25 0 000 2.5h16.25c.69 0 1.25-.56 1.25-1.25zm0 7.5c0-.69-.56-1.25-1.25-1.25h-11.25a1.25 1.25 0 000 2.5h11.25c.69 0 1.25-.56 1.25-1.25zm-15-37.5c0-.69-.56-1.25-1.25-1.25h-10a1.25 1.25 0 100 2.5h10c.69 0 1.25-.56 1.25-1.25zm15 7.5c0-.69-.56-1.25-1.25-1.25h-18.75a1.25 1.25 0 000 2.5h18.75c.69 0 1.25-.56 1.25-1.25zm-47.5 7.5h8.75a1.25 1.25 0 000-2.5h-8.75a1.25 1.25 0 000 2.5zm15 6.25c0-.69-.56-1.25-1.25-1.25h-18.75a1.25 1.25 0 000 2.5h18.75c.69 0 1.25-.56 1.25-1.25zm-6.25 6.25h-8.75a1.25 1.25 0 000 2.5h8.75a1.25 1.25 0 000-2.5z"
       />
       <path d="M33.143 53.625a18.33 18.33 0 007.292-7.073c.1-.173.207-.34.3-.515.048-.09.085-.184.132-.274.19-.365.375-.73.538-1.104.164-.374.293-.729.427-1.096.038-.107.087-.21.125-.318 3.179-9.243-1.277-19.379-10.237-23.286s-19.419-.274-24.028 8.346a18.638 18.638 0 00-2.2 8.828 18.727 18.727 0 0027.65 16.5v-.008zm-16.688-2.227a16.126 16.126 0 01-3.7-2.773 16.33 16.33 0 01-2.856-3.842 16.26 16.26 0 0125.834-19.136 16.341 16.341 0 012.8 19.208v.01a15.974 15.974 0 01-6.565 6.561 16.203 16.203 0 01-15.513-.023v-.005zM68.358 60c-.69 0-1.25.56-1.25 1.25v5c0 .69-.56 1.25-1.25 1.25h-5a1.25 1.25 0 000 2.5h5a3.75 3.75 0 003.75-3.75v-5c0-.69-.56-1.25-1.25-1.25z"
       />
   </g>
</svg>
