<svg width="30" height="30" viewBox="0 0 30 30" fill="none" xmlns="http://www.w3.org/2000/svg">
<path d="M24 16.5V27H3V6H10.53C10.605 4.935 10.86 3.93 11.25 3H3C1.35 3 0 4.35 0 6V27C0 28.65 1.35 30 3 30H24C25.65 30 27 28.65 27 27V19.5L24 16.5ZM21.75 24H5.25L9.375 18.705L12.315 22.245L16.44 16.935L21.75 24ZM25.95 10.335C26.61 9.285 27 8.07 27 6.75C27 3.015 23.985 0 20.25 0C16.515 0 13.5 3.015 13.5 6.75C13.5 10.485 16.515 13.5 20.235 13.5C21.555 13.5 22.785 13.11 23.82 12.45L28.5 17.13L30.63 15L25.95 10.335ZM20.25 10.5C18.18 10.5 16.5 8.82 16.5 6.75C16.5 4.68 18.18 3 20.25 3C22.32 3 24 4.68 24 6.75C24 8.82 22.32 10.5 20.25 10.5Z" fill="white"/>
</svg>
