<svg xmlns="http://www.w3.org/2000/svg" viewBox="0 0 14 14">
    <path d="M12.012 7.683A5.7 5.7 0 0012.055 7c0-.236-.017-.464-.052-.683l1.479-1.155a.361.361 0 00.087-.446l-1.4-2.424a.356.356 0 00-.429-.157l-1.74.7a5.126 5.126 0 00-1.182-.683L8.555.297A.35.35 0 008.205 0h-2.8a.34.34 0 00-.34.297l-.263 1.855a5.264 5.264 0 00-1.182.683l-1.74-.7a.346.346 0 00-.43.158L.05 4.716a.34.34 0 00.088.446l1.479 1.155A4.398 4.398 0 001.555 7c0 .228.018.464.053.683L.129 8.838a.362.362 0 00-.087.446l1.4 2.423c.087.158.27.21.428.158l1.742-.7c.367.28.752.508 1.18.683l.263 1.854a.356.356 0 00.35.298h2.8a.334.334 0 00.342-.297l.262-1.855a5.262 5.262 0 001.181-.683l1.742.7c.157.061.34 0 .428-.158l1.4-2.423a.34.34 0 00-.087-.447l-1.461-1.154zM6.805 9.624A2.633 2.633 0 014.18 7a2.633 2.633 0 012.625-2.625A2.633 2.633 0 019.43 7a2.633 2.633 0 01-2.625 2.625z"/>
</svg>
