<svg width="26" height="12" viewBox="0 0 26 12" fill="none" xmlns="http://www.w3.org/2000/svg">
<path d="M22.6395 4.91681C22.1368 2.44681 19.9485 0.583496 17.3333 0.583496C14.7181 0.583496 12.5298 2.44793 12.0271 4.91681H0V7.0835H12.0272C12.5309 9.55243 14.7182 11.4168 17.3334 11.4168C19.9486 11.4168 22.1369 9.55238 22.6396 7.0835H26V4.91681H22.6395ZM17.3333 9.25013C15.5415 9.25013 14.0833 7.79194 14.0833 6.00013C14.0833 4.20831 15.5415 2.75013 17.3333 2.75013C19.1251 2.75013 20.5833 4.20831 20.5833 6.00013C20.5833 7.79194 19.1252 9.25013 17.3333 9.25013Z" fill="#4BB7D4"/>
</svg>
