<svg width="28" height="28" viewBox="0 0 28 28" fill="none" xmlns="http://www.w3.org/2000/svg">
<path d="M26.9062 0H1.09375C0.489624 0 0 0.489624 0 1.09375V26.9062C0 27.5104 0.489624 28 1.09375 28H26.9062C27.5104 28 28 27.5104 28 26.9062C28 25.733 28 1.52698 28 1.09375C28 0.489624 27.5104 0 26.9062 0ZM25.8125 25.8125H2.1875V6.89062H25.8125V25.8125ZM25.8125 4.70312H2.1875V2.1875H25.8125V4.70312ZM5.08594 21.8203H14.2286C14.8327 21.8203 15.3223 21.3307 15.3223 20.7266V11.9766C15.3223 11.3724 14.8327 10.8828 14.2286 10.8828H5.08594C4.48181 10.8828 3.99219 11.3724 3.99219 11.9766V20.7266C3.99219 21.3307 4.48181 21.8203 5.08594 21.8203ZM6.17969 13.0703H13.1348V19.6328H6.17969V13.0703ZM17.8204 16.3516C17.8204 15.7474 18.3101 15.2578 18.9142 15.2578H22.9141C23.5182 15.2578 24.0078 15.7474 24.0078 16.3516C24.0078 16.9557 23.5182 17.4453 22.9141 17.4453H18.9142C18.3101 17.4453 17.8204 16.9557 17.8204 16.3516ZM17.8204 20.7266C17.8204 20.1224 18.3101 19.6328 18.9142 19.6328H22.9141C23.5182 19.6328 24.0078 20.1224 24.0078 20.7266C24.0078 21.3307 23.5182 21.8203 22.9141 21.8203H18.9142C18.3101 21.8203 17.8204 21.3307 17.8204 20.7266Z" fill="#4BB7D4"/>
</svg>
