<svg xmlns="http://www.w3.org/2000/svg" viewBox="0 0 18 18">
    <path d="M16.06 7.343H9.284c-1.07 0-1.94.87-1.94 1.94v3.682l-1.756 1.254a.527.527 0 000 .859l1.777 1.269A1.942 1.942 0 009.283 18h6.778C17.13 18 18 17.13 18 16.06V9.283c0-1.069-.87-1.939-1.94-1.939zm-2.278 7.41c-.125 0-.22-.04-.249-.147l-.215-.751h-1.293l-.215.751c-.028.108-.124.147-.248.147-.198 0-.464-.124-.464-.305 0-.011.006-.034.012-.056l1.09-3.553c.05-.17.26-.25.469-.25.214 0 .423.08.474.25l1.09 3.553c.006.022.012.04.012.056 0 .175-.266.305-.463.305z"/>
    <path d="M12.177 13.279h.983l-.491-1.734-.492 1.734zM6.288 9.282c0-.708.248-1.359.66-1.872a2.83 2.83 0 01-1.62-.508c-.46.32-1.018.508-1.62.508a.297.297 0 010-.595c.422 0 .816-.116 1.154-.319a2.837 2.837 0 01-.744-1.635h-.41a.297.297 0 110-.595h1.323v-.722a.297.297 0 11.595 0v.722h1.323a.297.297 0 010 .595h-.41a2.837 2.837 0 01-.744 1.635c.338.203.732.32 1.154.32.157 0 .285.121.296.275a2.983 2.983 0 012.038-.803h1.374V5.035l1.756-1.254a.527.527 0 000-.859l-1.777-1.269A1.943 1.943 0 008.718 0H1.939C.87 0 0 .87 0 1.94v6.778c0 1.069.87 1.939 1.94 1.939h4.348V9.282z"/>
    <path d="M5.328 6.125c.326-.338.547-.776.611-1.264H4.717c.065.488.286.926.611 1.264z"/>
</svg>
