<svg width="43" height="43" viewBox="0 0 43 43" fill="none" xmlns="http://www.w3.org/2000/svg">
<path d="M34.3915 4.24089V12.7524C34.3915 13.195 34.0327 13.5539 33.5901 13.5539H31.421L31.5262 17.1313L26.3681 13.5539H17.1765C16.7339 13.5539 16.375 13.195 16.375 12.7524V4.24089C16.375 3.79825 16.7339 3.43941 17.1765 3.43941H33.59C34.0327 3.43941 34.3915 3.79825 34.3915 4.24089H34.3915ZM18.7402 7.65278H32.0263V6.85133H18.7402V7.65278ZM18.7402 9.72756H26.5183V8.92611H18.7402V9.72756Z" fill="#99E4F0"/>
<path d="M6.60126 1.5816V10.0931C6.60126 10.5357 6.9601 10.8946 7.40273 10.8946H8.77034L8.66519 14.472L13.8233 10.8946H15.5734V4.24067C15.5734 3.35568 16.2914 2.63778 17.1763 2.63778H24.6178V1.58157C24.6178 1.13893 24.2589 0.78009 23.8163 0.78009H7.40275C6.96011 0.78009 6.60127 1.13893 6.60127 1.58157L6.60126 1.5816Z" fill="#99E4F0"/>
<path d="M38.3059 22.5378V22.6492C36.4831 22.7853 34.4218 22.7429 32.8805 21.8362C31.4173 20.9755 31.3183 19.8411 31.7047 18.3329C32.0216 18.3013 32.3435 18.288 32.6657 18.2928C33.443 18.3044 34.2206 18.4217 34.9326 18.6405C36.8548 19.2312 38.3404 20.5489 38.3028 22.5378H38.3059ZM38.3059 23.5069V25.2799C38.3059 27.9608 36.8313 29.6829 34.9437 30.4415C34.2219 30.7316 33.4444 30.8767 32.6719 30.8767C31.8994 30.8767 31.1219 30.7316 30.4001 30.4415C28.5182 29.6851 27.0469 27.9709 27.0382 25.3036C27.6265 25.2013 28.2333 25.0406 28.7977 24.8745C29.2257 24.7485 29.6537 24.6092 30.0698 24.448C30.3519 24.3387 30.6865 24.2024 30.9402 24.0368C31.4079 23.7315 31.8377 23.3414 32.134 22.8643L32.3449 22.5248L32.6987 22.7105C34.3705 23.5881 36.4123 23.645 38.3059 23.5069L38.3059 23.5069ZM27.0379 24.4324V22.5378C27.0379 20.4171 28.5034 19.125 30.3982 18.5796C30.5356 18.5401 30.6755 18.5047 30.8175 18.4734C30.7192 19.2235 30.596 20.1702 30.8327 20.8838C30.9496 21.2361 31.1464 21.5283 31.4056 21.7919L31.6254 22.0153L31.4798 22.2928C31.2565 22.7182 30.8744 23.0601 30.4767 23.3197C30.2262 23.4832 29.8971 23.6114 29.6165 23.7145C29.2404 23.8528 28.8547 23.9726 28.4692 24.0819C28.0094 24.2124 27.5185 24.3415 27.0379 24.4324L27.0379 24.4324Z" fill="#509AA6"/>
<path d="M39.2229 34.9339C38.5258 33.8282 37.5565 32.9087 36.4109 32.2711C35.2748 32.8961 33.972 33.2086 32.6723 33.2087C31.3726 33.2088 30.0698 32.8963 28.9336 32.2714C27.7882 32.909 26.819 33.8285 26.122 34.9342C25.3727 36.1229 24.9382 37.5303 24.9382 39.0371V40.4063H40.4069V39.0371C40.4069 37.5302 39.9724 36.1227 39.2229 34.9339Z" fill="#212121"/>
<path d="M36.8134 30.5472C38.3975 31.3252 39.736 32.5351 40.6728 34.0209C41.5923 35.4794 42.1254 37.2005 42.1254 39.0372V41.2658C42.1254 41.7404 41.7407 42.1252 41.266 42.1252H24.0785C23.6039 42.1252 23.2191 41.7404 23.2191 41.2658V39.0372C23.2191 37.2007 23.7522 35.4797 24.6715 34.0212C25.6197 32.5172 26.9795 31.2959 28.589 30.519L28.5881 30.5171C28.6211 30.5013 28.6546 30.4876 28.6884 30.4763C29.104 30.7771 29.5683 31.0337 30.0795 31.2391C30.901 31.5693 31.7869 31.7363 32.6718 31.7363C33.5568 31.7363 34.4427 31.5693 35.2641 31.2391C35.5546 31.1224 35.8299 30.989 36.0897 30.8406L36.3822 31.2908L36.09 30.8404C36.2876 30.7276 36.4764 30.6061 36.6559 30.4762C36.7104 30.4945 36.7632 30.5182 36.8133 30.5472L36.8134 30.5472Z" fill="#509AA6"/>
<path d="M15.9622 22.5378V22.6492C14.1395 22.7853 12.0782 22.7429 10.5369 21.8362C9.0736 20.9755 8.97463 19.8411 9.36103 18.3329C9.67791 18.3013 9.99979 18.288 10.322 18.2928C11.0993 18.3044 11.8769 18.4217 12.5889 18.6405C14.5112 19.2312 15.9968 20.5489 15.9591 22.5378H15.9622H15.9622ZM15.9622 23.5069V25.2799C15.9622 27.9608 14.4876 29.6829 12.6001 30.4415C11.8783 30.7316 11.1008 30.8767 10.3282 30.8767C9.55573 30.8767 8.77826 30.7316 8.05644 30.4415C6.17451 29.6851 4.70322 27.9709 4.6945 25.3036C5.28283 25.2013 5.88967 25.0406 6.45399 24.8745C6.88201 24.7485 7.31003 24.6092 7.72612 24.448C8.00826 24.3387 8.3428 24.2024 8.59659 24.0368C9.06422 23.7315 9.49402 23.3414 9.79036 22.8643L10.0012 22.5248L10.3551 22.7105C12.0268 23.5881 14.0686 23.645 15.9622 23.5069L15.9622 23.5069ZM4.69427 24.4324V22.5378C4.69427 20.4171 6.1597 19.125 8.05457 18.5796C8.19191 18.5401 8.33182 18.5047 8.47383 18.4734C8.37556 19.2235 8.25237 20.1702 8.48905 20.8838C8.60591 21.2361 8.80272 21.5283 9.06196 21.7919L9.28171 22.0153L9.13609 22.2928C8.91282 22.7182 8.53073 23.0601 8.13304 23.3197C7.88252 23.4832 7.55344 23.6114 7.27288 23.7145C6.89675 23.8528 6.51102 23.9726 6.12554 24.0819C5.66574 24.2124 5.17489 24.3415 4.69428 24.4324L4.69427 24.4324Z" fill="#509AA6"/>
<path d="M16.8793 34.9339C16.1821 33.8282 15.2129 32.9087 14.0673 32.2711C12.9312 32.8961 11.6284 33.2086 10.3287 33.2087C9.02898 33.2088 7.72621 32.8963 6.58997 32.2714C5.44453 32.909 4.47542 33.8285 3.7784 34.9342C3.02903 36.1229 2.59454 37.5303 2.59454 39.0371V40.4063H18.0633V39.0371C18.0633 37.5302 17.6288 36.1227 16.8793 34.9339Z" fill="#212121"/>
<path d="M14.4697 30.5472C16.0539 31.3252 17.3924 32.5351 18.3292 34.0209C19.2487 35.4794 19.7818 37.2005 19.7818 39.0372V41.2658C19.7818 41.7404 19.397 42.1252 18.9224 42.1252H1.73485C1.26024 42.1252 0.875458 41.7404 0.875458 41.2658V39.0372C0.875458 37.2007 1.40853 35.4797 2.32791 34.0212C3.27609 32.5172 4.63583 31.2959 6.24541 30.519L6.24452 30.5171C6.27747 30.5013 6.31094 30.4876 6.34475 30.4763C6.7604 30.7771 7.2247 31.0337 7.73592 31.2391C8.55735 31.5693 9.44326 31.7363 10.3282 31.7363C11.2131 31.7363 12.0991 31.5693 12.9205 31.2391C13.211 31.1224 13.4862 30.989 13.7461 30.8406L14.0386 31.2908L13.7464 30.8404C13.944 30.7276 14.1328 30.6061 14.3123 30.4762C14.3668 30.4945 14.4195 30.5182 14.4697 30.5472L14.4697 30.5472Z" fill="#509AA6"/>
</svg>
