<svg xmlns="http://www.w3.org/2000/svg" viewBox="0 0 16 16">
    <path d="M7.886 7.707c1.059 0 1.976-.38 2.725-1.129a3.728 3.728 0 001.129-2.725 3.73 3.73 0 00-1.13-2.724A3.73 3.73 0 007.887 0C6.827 0 5.91.38 5.161 1.129a3.729 3.729 0 00-1.129 2.724c0 1.06.38 1.976 1.13 2.725a3.73 3.73 0 002.724 1.13zM14.629 12.303a9.498 9.498 0 00-.13-1.01 7.958 7.958 0 00-.248-1.017 5.017 5.017 0 00-.418-.948 3.576 3.576 0 00-.63-.822 2.778 2.778 0 00-.905-.568c-.351-.14-.74-.21-1.156-.21-.163 0-.321.068-.626.266a82.95 82.95 0 01-.653.42c-.21.134-.493.26-.844.373-.342.11-.69.167-1.032.167-.343 0-.69-.056-1.033-.167a3.73 3.73 0 01-.844-.372 89.524 89.524 0 01-.653-.42c-.305-.2-.463-.266-.626-.266-.416 0-.805.07-1.155.209-.352.14-.657.33-.906.569-.237.227-.45.503-.63.82a5.031 5.031 0 00-.417.949 7.99 7.99 0 00-.249 1.016 9.487 9.487 0 00-.13 1.011c-.02.307-.032.624-.032.945 0 .836.266 1.512.79 2.01.517.492 1.2.742 2.033.742h7.704c.832 0 1.516-.25 2.033-.742.524-.498.79-1.174.79-2.01 0-.322-.012-.64-.033-.945z"/>
</svg>
